<svg width="108" height="80" viewBox="0 0 108 80" fill="none" xmlns="http://www.w3.org/2000/svg">
<path d="M2.26758 17.6445C2.26758 12.1602 2.37305 8.39844 2.58398 6.35938L0.597656 6.00781C0.316406 4.92969 0.175781 3.76953 0.175781 2.52734C0.351562 2.30469 0.679688 2.0293 1.16016 1.70117C1.64062 1.37305 2.19727 1.08594 2.83008 0.839844C3.47461 0.59375 4.11328 0.470703 4.74609 0.470703C6.31641 0.470703 7.53516 0.810547 8.40234 1.49023C9.28125 2.16992 9.7207 3.33008 9.7207 4.9707C9.7207 5.79102 9.66211 7.05078 9.54492 8.75C9.42773 10.4375 9.21094 12.4883 8.89453 14.9023C8.57812 17.3164 8.15625 19.8359 7.62891 22.4609L7.92773 22.6367C8.85352 21.3594 9.74414 19.9531 10.5996 18.418C11.4551 16.8711 12.1348 15.4355 12.6387 14.1113L11.127 13.7422C10.9863 12.9453 10.916 12.002 10.916 10.9121V10.2793C11.3613 9.7168 11.9707 9.22461 12.7441 8.80273C13.5293 8.38086 14.502 8.16992 15.6621 8.16992C16.4941 8.16992 17.2148 8.32812 17.8242 8.64453C18.4336 8.94922 18.9023 9.37695 19.2305 9.92773C19.5586 10.4785 19.7227 11.1113 19.7227 11.8262C19.7227 12.3652 19.6406 12.875 19.4766 13.3555C19.3125 13.8242 19.0664 14.3223 18.7383 14.8496C17.8945 16.1855 16.4238 18.084 14.3262 20.5449C15.0293 21.5293 15.7148 22.3848 16.3828 23.1113C16.6406 22.9824 16.8809 22.8125 17.1035 22.6016C17.3379 22.3906 17.6367 22.0859 18 21.6875L18.3867 21.2832L20.5488 22.918C20.4668 25.0039 20.0156 26.5977 19.1953 27.6992C18.3867 28.7891 17.3145 29.334 15.9785 29.334C14.5137 29.334 13.4121 28.8887 12.6738 27.998C11.9355 27.1074 11.3965 25.8477 11.0566 24.2188C9.76758 25.6133 8.63086 26.7852 7.64648 27.7344C6.67383 28.6719 6.03516 29.2109 5.73047 29.3516C5.08594 29.3516 4.4707 29.2754 3.88477 29.123C3.29883 28.9707 2.86523 28.7305 2.58398 28.4023C2.45508 26.7383 2.36719 25.0918 2.32031 23.4629C2.28516 21.8223 2.26758 19.8828 2.26758 17.6445ZM28.0371 17.416C28.7285 17.416 29.4902 17.4863 30.3223 17.627C31.166 17.7676 31.9395 17.9375 32.6426 18.1367V17.5918C32.6426 17.2285 32.6309 16.8242 32.6074 16.3789C32.5957 15.9336 32.5723 15.6406 32.5371 15.5C32.4316 15.3008 32.127 15.0957 31.623 14.8848C31.1309 14.6738 30.3223 14.5684 29.1973 14.5684C28.5059 14.5684 27.791 14.6562 27.0527 14.832C26.3262 14.9961 25.5176 15.2188 24.627 15.5C24.1465 14.7031 23.7598 13.9473 23.4668 13.2324C23.1855 12.5059 23.0449 11.7793 23.0449 11.0527C23.0449 10.8301 23.0625 10.6074 23.0977 10.3848C24.9961 8.9082 27.4512 8.16992 30.4629 8.16992C32.127 8.16992 33.6035 8.35742 34.8926 8.73242C36.1816 9.10742 37.2422 9.83398 38.0742 10.9121C38.9062 11.9902 39.3223 13.5195 39.3223 15.5C39.3223 17.4336 39.0938 19.3086 38.6367 21.125C38.1914 22.9297 37.9629 23.8496 37.9512 23.8848L40.5 22.7949C40.8398 23.1582 41.1387 23.6035 41.3965 24.1309C41.666 24.6465 41.8359 25.2441 41.9062 25.9238C41.7422 26.2754 41.3848 26.7266 40.834 27.2773C40.2832 27.8164 39.6094 28.2969 38.8125 28.7188C38.0156 29.1406 37.1836 29.3516 36.3164 29.3516C35.3438 29.3516 34.6055 29.0645 34.1016 28.4902C33.6094 27.916 33.3633 27.1719 33.3633 26.2578C33.3633 25.7422 33.4395 25.2207 33.5918 24.6934L33.0645 24.5352C32.7363 26.3867 32.0391 27.6523 30.9727 28.332C29.9062 29.0117 28.7285 29.3516 27.4395 29.3516C26.5957 29.3516 25.7812 29.1172 24.9961 28.6484C24.2109 28.168 23.5723 27.4766 23.0801 26.5742C22.5879 25.6602 22.3418 24.5938 22.3418 23.375C22.3418 21.4297 22.8281 19.9531 23.8008 18.9453C24.7734 17.9258 26.1855 17.416 28.0371 17.416ZM30.041 24.1133C30.334 24.0547 30.6797 23.8906 31.0781 23.6211C31.4883 23.3516 31.8516 23.0293 32.168 22.6543C32.4844 22.2793 32.6719 21.9219 32.7305 21.582L32.625 21.1602C32.0039 21.0781 31.3418 21.0371 30.6387 21.0371C30.041 21.0371 29.6309 21.084 29.4082 21.1777C29.0332 21.5996 28.8457 22.0684 28.8457 22.584C28.8457 22.959 28.9395 23.2988 29.127 23.6035C29.3262 23.9082 29.6309 24.0781 30.041 24.1133ZM44.4375 22.8828C44.4375 20.9727 44.4609 19.5312 44.5078 18.5586C44.5547 17.5742 44.6777 16.1328 44.877 14.2344L42.8555 13.9707C42.6094 13.209 42.4453 12.5293 42.3633 11.9316C42.293 11.334 42.2578 10.5605 42.2578 9.61133C42.4453 9.44727 42.7559 9.25391 43.1895 9.03125C43.6348 8.79688 44.1562 8.59766 44.7539 8.43359C45.3633 8.25781 45.9785 8.16992 46.5996 8.16992C48.0176 8.16992 49.0195 8.47461 49.6055 9.08398C50.2031 9.69336 50.502 10.6074 50.502 11.8262C50.502 12.5059 50.4023 13.4258 50.2031 14.5859C49.875 16.4492 49.7109 17.4277 49.7109 17.5215C49.7109 17.5801 49.752 17.6387 49.834 17.6973C49.916 17.7441 50.0039 17.7676 50.0977 17.7676C50.2031 17.7676 50.2734 17.7266 50.3086 17.6445C50.2969 17.6914 50.4316 17.0996 50.7129 15.8691C51.0527 14.252 51.3984 12.9336 51.75 11.9141C52.1133 10.8945 52.6875 10.0215 53.4727 9.29492C54.2578 8.56836 55.3242 8.20508 56.6719 8.20508C58.3359 8.20508 59.5371 8.68555 60.2754 9.64648C61.0137 10.5957 61.3828 11.8613 61.3828 13.4434C61.3828 14.6973 61.1719 16.0918 60.75 17.627C60.75 17.6855 60.791 17.7441 60.873 17.8027C60.9551 17.8496 61.043 17.873 61.1367 17.873C61.2422 17.873 61.3125 17.832 61.3477 17.75L61.5938 16.7656C62.0156 15.0312 62.4316 13.5898 62.8418 12.4414C63.2637 11.293 63.8906 10.3027 64.7227 9.4707C65.5664 8.62695 66.6621 8.20508 68.0098 8.20508C69.7793 8.20508 71.0508 8.77344 71.8242 9.91016C72.6094 11.0469 73.002 12.4766 73.002 14.1992C73.002 15.418 72.8848 16.6426 72.6504 17.873C72.4277 19.1035 72.1875 20.1348 71.9297 20.9668C71.6836 21.7988 71.3789 22.7598 71.0156 23.8496L71.0508 23.8848L73.6523 22.7949C74.5664 23.5801 75.0996 24.623 75.252 25.9238C75.252 26.0059 74.9883 26.3457 74.4609 26.9434C73.9336 27.5293 73.2363 28.0801 72.3691 28.5957C71.5137 29.0996 70.5293 29.3516 69.416 29.3516C68.3027 29.3516 67.3945 29.0527 66.6914 28.4551C65.9883 27.8574 65.6367 26.8379 65.6367 25.3965C65.6367 23.791 65.666 22.1445 65.7246 20.457C65.7949 18.7578 65.8945 17.2344 66.0234 15.8867C65.8242 15.7227 65.5488 15.6348 65.1973 15.623C64.8457 15.9629 64.4062 16.707 63.8789 17.8555C63.3516 18.9922 62.8652 20.2109 62.4199 21.5117C61.9746 22.8008 61.6934 23.8086 61.5762 24.5352C61.7402 25.6836 61.9922 26.8203 62.332 27.9453C62.1211 28.3438 61.6875 28.6777 61.0312 28.9473C60.375 29.2168 59.5664 29.3516 58.6055 29.3516C57.7383 29.3516 57.0586 29.2812 56.5664 29.1406C56.0742 29 55.7344 28.8535 55.5469 28.7012C55.3711 28.5488 55.2832 28.4492 55.2832 28.4023C55.2715 28.2969 55.2422 28.0215 55.1953 27.5762C55.1484 27.1191 55.1016 26.4863 55.0547 25.6777C55.0078 24.8574 54.9844 23.9258 54.9844 22.8828C54.9844 21.8867 55.0605 20.6387 55.2129 19.1387C55.2246 18.9512 55.2598 18.5059 55.3184 17.8027C55.377 17.0996 55.4062 16.4609 55.4062 15.8867C55.207 15.7227 54.9316 15.6348 54.5801 15.623C54.3809 15.7754 53.8242 16.748 52.9102 18.541C51.9961 20.334 51.3867 21.5996 51.082 22.3379C51.0586 22.502 51.0469 22.6602 51.0469 22.8125C51.0469 23.3984 51.1348 24.1895 51.3105 25.1855C51.4863 26.1699 51.7031 27.0898 51.9609 27.9453C51.75 28.3438 51.3164 28.6777 50.6602 28.9473C50.0039 29.2168 49.1953 29.3516 48.2344 29.3516C47.3672 29.3516 46.6699 29.2812 46.1426 29.1406C45.627 29 45.2637 28.8535 45.0527 28.7012C44.8418 28.5371 44.7363 28.4375 44.7363 28.4023C44.7246 28.2969 44.6953 28.0215 44.6484 27.5762C44.6016 27.1191 44.5547 26.4863 44.5078 25.6777C44.4609 24.8574 44.4375 23.9258 44.4375 22.8828ZM82.0371 17.416C82.7285 17.416 83.4902 17.4863 84.3223 17.627C85.166 17.7676 85.9395 17.9375 86.6426 18.1367V17.5918C86.6426 17.2285 86.6309 16.8242 86.6074 16.3789C86.5957 15.9336 86.5723 15.6406 86.5371 15.5C86.4316 15.3008 86.127 15.0957 85.623 14.8848C85.1309 14.6738 84.3223 14.5684 83.1973 14.5684C82.5059 14.5684 81.791 14.6562 81.0527 14.832C80.3262 14.9961 79.5176 15.2188 78.627 15.5C78.1465 14.7031 77.7598 13.9473 77.4668 13.2324C77.1855 12.5059 77.0449 11.7793 77.0449 11.0527C77.0449 10.8301 77.0625 10.6074 77.0977 10.3848C78.9961 8.9082 81.4512 8.16992 84.4629 8.16992C86.127 8.16992 87.6035 8.35742 88.8926 8.73242C90.1816 9.10742 91.2422 9.83398 92.0742 10.9121C92.9062 11.9902 93.3223 13.5195 93.3223 15.5C93.3223 17.4336 93.0938 19.3086 92.6367 21.125C92.1914 22.9297 91.9629 23.8496 91.9512 23.8848L94.5 22.7949C94.8398 23.1582 95.1387 23.6035 95.3965 24.1309C95.666 24.6465 95.8359 25.2441 95.9062 25.9238C95.7422 26.2754 95.3848 26.7266 94.834 27.2773C94.2832 27.8164 93.6094 28.2969 92.8125 28.7188C92.0156 29.1406 91.1836 29.3516 90.3164 29.3516C89.3438 29.3516 88.6055 29.0645 88.1016 28.4902C87.6094 27.916 87.3633 27.1719 87.3633 26.2578C87.3633 25.7422 87.4395 25.2207 87.5918 24.6934L87.0645 24.5352C86.7363 26.3867 86.0391 27.6523 84.9727 28.332C83.9062 29.0117 82.7285 29.3516 81.4395 29.3516C80.5957 29.3516 79.7812 29.1172 78.9961 28.6484C78.2109 28.168 77.5723 27.4766 77.0801 26.5742C76.5879 25.6602 76.3418 24.5938 76.3418 23.375C76.3418 21.4297 76.8281 19.9531 77.8008 18.9453C78.7734 17.9258 80.1855 17.416 82.0371 17.416ZM84.041 24.1133C84.334 24.0547 84.6797 23.8906 85.0781 23.6211C85.4883 23.3516 85.8516 23.0293 86.168 22.6543C86.4844 22.2793 86.6719 21.9219 86.7305 21.582L86.625 21.1602C86.0039 21.0781 85.3418 21.0371 84.6387 21.0371C84.041 21.0371 83.6309 21.084 83.4082 21.1777C83.0332 21.5996 82.8457 22.0684 82.8457 22.584C82.8457 22.959 82.9395 23.2988 83.127 23.6035C83.3262 23.9082 83.6309 24.0781 84.041 24.1133ZM96.3105 6.00781C96.1348 5.29297 96.0176 4.70117 95.959 4.23242C95.9004 3.75195 95.877 3.20117 95.8887 2.58008C96.1348 2.26367 96.5156 1.94727 97.0312 1.63086C97.5586 1.30273 98.168 1.02734 98.8594 0.804688C99.5625 0.582031 100.289 0.470703 101.039 0.470703C102.504 0.470703 103.629 0.839844 104.414 1.57812C105.199 2.31641 105.592 3.40625 105.592 4.84766C105.592 5.87891 105.504 7.53711 105.328 9.82227C105.152 12.1074 104.9 14.5391 104.572 17.1172C104.244 19.6836 103.869 21.9277 103.447 23.8496L103.482 23.8848L106.084 22.7949C106.998 23.5801 107.531 24.623 107.684 25.9238C107.684 26.0059 107.42 26.3457 106.893 26.9434C106.365 27.5293 105.668 28.0801 104.801 28.5957C103.945 29.0996 102.961 29.3516 101.848 29.3516C100.688 29.3516 99.7441 29.0293 99.0176 28.3848C98.3027 27.7402 97.9629 26.6387 97.998 25.0801L98.0332 21.916C98.0449 18.916 98.0742 16.2148 98.1211 13.8125C98.1797 11.4102 98.2969 8.93164 98.4727 6.37695L96.3105 6.00781ZM7.50586 63.7871C7.50586 61.7598 7.8457 59.9492 8.52539 58.3555C9.20508 56.7617 10.2539 55.502 11.6719 54.5762C13.1016 53.6387 14.8828 53.1699 17.0156 53.1699C17.7422 53.1699 18.5742 53.2168 19.5117 53.3105C20.4609 53.3926 21.3691 53.5215 22.2363 53.6973L22.5879 53.9434C23.1152 54.3066 23.502 54.5996 23.748 54.8223C24.0059 55.0332 24.2754 55.332 24.5566 55.7188C24.5566 56.3516 24.4688 57.2246 24.293 58.3379C24.1289 59.4395 23.918 60.4648 23.6602 61.4141C23.4023 62.3633 23.1562 62.9727 22.9219 63.2422C22.5352 63.4414 21.9082 63.541 21.041 63.541C20.6191 63.541 20.2207 63.5117 19.8457 63.4531C19.4824 63.3828 19.207 63.2949 19.0195 63.1895L18.6504 59.9375C18.4746 59.7383 18.0703 59.5801 17.4375 59.4629C16.8164 59.334 16.2422 59.2695 15.7148 59.2695C15.5508 59.2695 15.3984 59.2812 15.2578 59.3047C14.9883 59.8555 14.7832 60.5586 14.6426 61.4141C14.502 62.2695 14.4316 63.1426 14.4316 64.0332C14.4316 65.3223 14.6426 66.418 15.0645 67.3203C15.4863 68.2109 16.3477 68.6562 17.6484 68.6562C18.293 68.6562 18.9258 68.5508 19.5469 68.3398C20.1797 68.1289 20.9766 67.8066 21.9375 67.373C22.3359 67.1855 22.6348 67.0508 22.834 66.9688C23.3027 67.4375 23.6719 67.9297 23.9414 68.4453C24.2109 68.9609 24.3867 69.623 24.4688 70.4316C23.7188 71.3105 22.6641 72.1836 21.3047 73.0508C19.957 73.918 18.3809 74.3516 16.5762 74.3516C14.6543 74.3516 13.0078 73.8887 11.6367 72.9629C10.2773 72.0254 9.24609 70.7598 8.54297 69.166C7.85156 67.5605 7.50586 65.7676 7.50586 63.7871ZM32.8184 63.752C32.0684 64.3496 31.1953 64.6836 30.1992 64.7539C29.7539 64.6367 29.3379 64.3496 28.9512 63.8926C28.5762 63.4355 28.2773 62.8965 28.0547 62.2754C27.832 61.6426 27.7207 61.0332 27.7207 60.4473C27.7207 59.7441 27.8262 59.0762 28.0371 58.4434C28.248 57.8105 28.5234 57.377 28.8633 57.1426C29.1094 57.1426 30.0703 57.418 31.7461 57.9688L32.5547 58.2148L33.1172 57.6172L31.9922 47.5801C31.9102 46.7832 31.8691 46.1738 31.8691 45.752C31.8691 44.7207 32.0215 43.9238 32.3262 43.3613C32.6426 42.7871 33.1406 42.377 33.8203 42.1309C34.5 41.8848 35.4375 41.7441 36.6328 41.709L41.5195 41.5684C41.543 41.7441 41.5898 41.9492 41.6602 42.1836C41.7891 42.7812 41.8828 43.2793 41.9414 43.6777C42.0117 44.0762 42.041 44.4746 42.0293 44.873C41.5605 45.2715 41.0391 45.6055 40.4648 45.875C39.8906 46.1445 39.1465 46.4023 38.2324 46.6484L38.6895 55.6309C38.7363 56.6152 38.4141 57.5 37.7227 58.2852C37.0312 59.0703 36.0938 59.8027 34.9102 60.4824V60.7461C36.0352 61.3086 36.9258 61.9531 37.582 62.6797C38.25 63.3945 38.584 64.3262 38.584 65.4746L38.5664 65.8262L38.0566 74.2812C38.7363 74.3281 39.334 74.4629 39.8496 74.6855C40.377 74.9082 40.7578 75.1719 40.9922 75.4766C40.9922 76.2266 40.9395 76.8711 40.834 77.4102C40.7285 77.9492 40.5586 78.5234 40.3242 79.1328H35.5957C34.3887 79.1328 33.5508 78.793 33.082 78.1133C32.625 77.4336 32.3965 76.5312 32.3965 75.4062C32.3965 75.2188 32.4082 74.9375 32.4316 74.5625L33.1699 64.0508L32.8184 63.752ZM52.3652 74.5625C52.3887 74.9375 52.4004 75.2188 52.4004 75.4062C52.4004 76.5312 52.166 77.4336 51.6973 78.1133C51.2402 78.793 50.4082 79.1328 49.2012 79.1328H44.4727C44.2383 78.5234 44.0684 77.9492 43.9629 77.4102C43.8574 76.8711 43.8047 76.2266 43.8047 75.4766C44.0391 75.1719 44.4141 74.9082 44.9297 74.6855C45.457 74.4629 46.0605 74.3281 46.7402 74.2812L46.2305 65.8262C46.1484 64.5723 46.4414 63.5586 47.1094 62.7852C47.7773 62 48.7031 61.3203 49.8867 60.7461V60.4824C48.7031 59.8027 47.7656 59.0703 47.0742 58.2852C46.3828 57.5 46.0605 56.6152 46.1074 55.6309L46.5645 46.6484C45.6504 46.4023 44.9062 46.1445 44.332 45.875C43.7578 45.6055 43.2363 45.2715 42.7676 44.873C42.7559 44.4746 42.7793 44.0762 42.8379 43.6777C42.9082 43.2793 43.0078 42.7812 43.1367 42.1836C43.207 41.9492 43.2539 41.7441 43.2773 41.5684L48.1641 41.709C49.3594 41.7441 50.2969 41.8848 50.9766 42.1309C51.6562 42.377 52.1484 42.7871 52.4531 43.3613C52.7695 43.9238 52.9277 44.7207 52.9277 45.752C52.9277 46.1738 52.8867 46.7832 52.8047 47.5801L51.6797 57.6172L52.2422 58.2148L53.0508 57.9688C54.7266 57.418 55.6875 57.1426 55.9336 57.1426C56.2734 57.377 56.5488 57.8105 56.7598 58.4434C56.9707 59.0762 57.0762 59.7441 57.0762 60.4473C57.0762 61.0332 56.9648 61.6426 56.7422 62.2754C56.5195 62.8965 56.2148 63.4355 55.8281 63.8926C55.4531 64.3496 55.043 64.6367 54.5977 64.7539C53.6016 64.6836 52.7285 64.3496 51.9785 63.752L51.627 64.0508L52.3652 74.5625ZM60.5742 63.8574C60.5742 62.0762 60.8203 60.3711 61.3125 58.7422C61.8164 57.1133 62.6016 55.7773 63.668 54.7344C64.7461 53.6914 66.0996 53.1699 67.7285 53.1699C69.5566 53.1699 71.3027 53.75 72.9668 54.9102L73.248 54.7344C73.2129 53.3633 73.043 52.1211 72.7383 51.0078L69.1699 50.7793C69.0059 50.5684 68.877 50.2578 68.7832 49.8477C68.6895 49.4258 68.6426 48.9922 68.6426 48.5469C68.6426 47.9492 68.7129 47.4336 68.8535 47C69.5566 46.4961 70.459 46.1152 71.5605 45.8574C72.6621 45.5996 73.7637 45.4707 74.8652 45.4707C76.084 45.4707 77.0039 45.7285 77.625 46.2441C78.2461 46.748 78.6621 47.5156 78.873 48.5469C79.0957 49.5664 79.207 50.9844 79.207 52.8008C79.207 55.1914 79.1074 57.9043 78.9082 60.9395C78.709 63.9746 78.4512 66.4531 78.1348 68.375L78.0645 68.6738L80.1035 67.7949C80.4434 68.1582 80.7422 68.6035 81 69.1309C81.2695 69.6465 81.4395 70.2441 81.5098 70.9238C81.3457 71.2754 80.9883 71.7266 80.4375 72.2773C79.8867 72.8164 79.2129 73.2969 78.416 73.7188C77.6191 74.1406 76.7871 74.3516 75.9199 74.3516C74.9473 74.3516 74.1973 74.0645 73.6699 73.4902C73.1543 72.9043 72.8965 72.1602 72.8965 71.2578C72.8965 71.0234 72.9551 70.543 73.0723 69.8164C73.2012 69.0898 73.3066 68.5859 73.3887 68.3047L72.8613 68.1465C72.2637 70.2441 71.4727 71.8027 70.4883 72.8223C69.5039 73.8418 68.2852 74.3516 66.832 74.3516C65.2734 74.3516 64.0254 73.8359 63.0879 72.8047C62.1621 71.7617 61.5117 70.4551 61.1367 68.8848C60.7617 67.3145 60.5742 65.6387 60.5742 63.8574ZM72.6328 63.541C72.7031 63.1191 72.7383 62.627 72.7383 62.0645C72.7383 61.7012 72.7207 61.3555 72.6855 61.0273C72.6621 60.6992 72.6328 60.4648 72.5977 60.3242C72.1289 59.9844 71.5957 59.7441 70.998 59.6035C70.4121 59.4629 69.873 59.3926 69.3809 59.3926C69.0762 59.3926 68.748 59.4219 68.3965 59.4805C68.1621 59.7148 67.9746 60.2246 67.834 61.0098C67.6934 61.7832 67.623 62.6562 67.623 63.6289C67.623 64.6719 67.6934 65.6855 67.834 66.6699C67.9863 67.6426 68.1973 68.4043 68.4668 68.9551C68.6543 68.9551 69.0176 68.668 69.5566 68.0938C70.1074 67.5078 70.6758 66.793 71.2617 65.9492C71.8477 65.0938 72.3047 64.291 72.6328 63.541ZM82.7051 63.7871C82.7051 61.7598 83.0449 59.9492 83.7246 58.3555C84.4043 56.7617 85.4531 55.502 86.8711 54.5762C88.3008 53.6387 90.082 53.1699 92.2148 53.1699C93.3281 53.1699 94.4414 53.3047 95.5547 53.5742C96.668 53.832 97.6113 54.2656 98.3848 54.875C99.0996 55.4492 99.6152 56.2109 99.9316 57.1602C100.26 58.0977 100.424 59.1406 100.424 60.2891C100.424 61.0508 100.359 61.8301 100.23 62.627C100.09 62.8613 99.8145 63.1719 99.4043 63.5586C98.9941 63.9336 98.5137 64.3027 97.9629 64.666C97.4121 65.0293 96.8789 65.3105 96.3633 65.5098C95.8711 65.5449 95.3613 65.5625 94.834 65.5625C93.9082 65.5625 92.9707 65.5215 92.0215 65.4395C91.0723 65.3574 90.2402 65.2637 89.5254 65.1582C89.6191 66.1543 89.9238 67.0215 90.4395 67.7598C90.9551 68.498 91.7754 68.8672 92.9004 68.8672C93.0059 68.8672 93.1758 68.8555 93.4102 68.832C94.125 68.7617 94.957 68.5742 95.9062 68.2695C96.8672 67.9531 97.8223 67.5898 98.7715 67.1797C99.2168 67.625 99.5449 68.0703 99.7559 68.5156C99.9668 68.9609 100.113 69.5996 100.195 70.4316C99.832 70.8535 99.2402 71.3691 98.4199 71.9785C97.6113 72.5879 96.6211 73.1387 95.4492 73.6309C94.2773 74.1113 93.0527 74.3516 91.7754 74.3516C89.8535 74.3516 88.207 73.8887 86.8359 72.9629C85.4766 72.0254 84.4453 70.7598 83.7422 69.166C83.0508 67.5605 82.7051 65.7676 82.7051 63.7871ZM94.0254 59.7441C93.8613 59.5684 93.5859 59.4336 93.1992 59.3398C92.8125 59.2344 92.4082 59.1816 91.9863 59.1816C91.6465 59.1816 91.3008 59.2109 90.9492 59.2695C90.6094 59.3281 90.4043 59.3926 90.334 59.4629C89.9355 60.248 89.6836 61.1387 89.5781 62.1348L94.2715 61.6777L94.0254 59.7441Z" fill="#0A99FE"/>
<path d="M2.58398 6.35938L3.57868 6.46227L3.67441 5.53683L2.75827 5.37468L2.58398 6.35938ZM0.597656 6.00781L-0.369961 6.26023L-0.208089 6.88074L0.423374 6.99251L0.597656 6.00781ZM0.175781 2.52734L-0.609102 1.9077L-0.824219 2.18018V2.52734H0.175781ZM2.83008 0.839844L2.47337 -0.0943923L2.46763 -0.0921609L2.83008 0.839844ZM8.40234 1.49023L7.78545 2.27731L7.7906 2.28129L8.40234 1.49023ZM9.54492 8.75L10.5425 8.81928L10.5426 8.8188L9.54492 8.75ZM7.62891 22.4609L6.64849 22.264L6.50828 22.9619L7.12189 23.3229L7.62891 22.4609ZM7.92773 22.6367L7.42071 23.4987L8.20408 23.9595L8.73743 23.2236L7.92773 22.6367ZM10.5996 18.418L11.4731 18.9047L11.4747 18.9019L10.5996 18.418ZM12.6387 14.1113L13.5733 14.467L13.9761 13.4085L12.8759 13.1399L12.6387 14.1113ZM11.127 13.7422L10.1422 13.916L10.2556 14.5588L10.8897 14.7136L11.127 13.7422ZM10.916 10.2793L10.132 9.65859L9.91602 9.93138V10.2793H10.916ZM12.7441 8.80273L12.2708 7.92182L12.2653 7.92484L12.7441 8.80273ZM17.8242 8.64453L17.3634 9.53203L17.3702 9.53554L17.377 9.53896L17.8242 8.64453ZM19.4766 13.3555L20.4204 13.6858L20.4229 13.6786L19.4766 13.3555ZM18.7383 14.8496L19.5838 15.3836L19.5873 15.3779L18.7383 14.8496ZM14.3262 20.5449L13.5651 19.8962L13.0585 20.4906L13.5124 21.1262L14.3262 20.5449ZM16.3828 23.1113L15.6466 23.7881L16.1564 24.3426L16.83 24.0058L16.3828 23.1113ZM17.1035 22.6016L16.4346 21.8583L16.4251 21.8668L16.4158 21.8756L17.1035 22.6016ZM18 21.6875L17.2774 20.9963L17.2691 21.0049L17.261 21.0137L18 21.6875ZM18.3867 21.2832L18.9898 20.4855L18.2796 19.9485L17.6641 20.592L18.3867 21.2832ZM20.5488 22.918L21.5481 22.9573L21.5686 22.4353L21.1519 22.1203L20.5488 22.918ZM19.1953 27.6992L18.3933 27.102L18.3922 27.1034L19.1953 27.6992ZM11.0566 24.2188L12.0356 24.0145L11.6393 22.1152L10.3223 23.54L11.0566 24.2188ZM7.64648 27.7344L8.34046 28.4544L8.34062 28.4542L7.64648 27.7344ZM5.73047 29.3516V30.3516H5.95011L6.14953 30.2595L5.73047 29.3516ZM3.88477 29.123L3.63313 30.0909L3.88477 29.123ZM2.58398 28.4023L1.58697 28.4796L1.61219 28.8052L1.82473 29.0531L2.58398 28.4023ZM2.32031 23.4629L1.32052 23.4843L1.32073 23.4917L2.32031 23.4629ZM3.26758 17.6445C3.26758 12.156 3.37377 8.44305 3.57868 6.46227L1.58929 6.25648C1.37232 8.35383 1.26758 12.1643 1.26758 17.6445H3.26758ZM2.75827 5.37468L0.771939 5.02312L0.423374 6.99251L2.4097 7.34407L2.75827 5.37468ZM1.56527 5.75539C1.30782 4.7685 1.17578 3.69398 1.17578 2.52734H-0.824219C-0.824219 3.84509 -0.675011 5.09087 -0.369961 6.26023L1.56527 5.75539ZM0.960664 3.14699C1.03729 3.04992 1.25867 2.84484 1.72412 2.52697L0.596195 0.875371C0.10071 1.21375 -0.334168 1.55945 -0.609102 1.9077L0.960664 3.14699ZM1.72412 2.52697C2.13227 2.24824 2.61923 1.99479 3.19252 1.77185L2.46763 -0.0921609C1.7753 0.17708 1.14898 0.497856 0.596195 0.875371L1.72412 2.52697ZM3.18678 1.77406C3.72772 1.56752 4.24576 1.4707 4.74609 1.4707V-0.529297C3.9808 -0.529297 3.2215 -0.380023 2.47338 -0.0943746L3.18678 1.77406ZM4.74609 1.4707C6.18543 1.4707 7.1555 1.78353 7.78546 2.27729L9.01923 0.703178C7.91482 -0.16244 6.44738 -0.529297 4.74609 -0.529297V1.4707ZM7.7906 2.28129C8.32474 2.69436 8.7207 3.48656 8.7207 4.9707H10.7207C10.7207 3.17359 10.2378 1.64548 9.01409 0.699181L7.7906 2.28129ZM8.7207 4.9707C8.7207 5.7548 8.6642 6.98604 8.54729 8.6812L10.5426 8.8188C10.66 7.11553 10.7207 5.82723 10.7207 4.9707H8.7207ZM8.54732 8.68072C8.43201 10.3413 8.21781 12.3706 7.90301 14.7724L9.88605 15.0323C10.2041 12.606 10.4235 10.5337 10.5425 8.81928L8.54732 8.68072ZM7.90301 14.7724C7.58982 17.1619 7.17181 19.659 6.64849 22.264L8.60932 22.6579C9.14069 20.0129 9.56643 17.4709 9.88605 15.0323L7.90301 14.7724ZM7.12189 23.3229L7.42071 23.4987L8.43475 21.7748L8.13593 21.599L7.12189 23.3229ZM8.73743 23.2236C9.6889 21.9108 10.6005 20.4706 11.4731 18.9047L9.72608 17.9312C8.88775 19.4356 8.01813 20.808 7.11804 22.0499L8.73743 23.2236ZM11.4747 18.9019C12.3477 17.3234 13.0491 15.8445 13.5733 14.467L11.7041 13.7557C11.2204 15.0266 10.5625 16.4188 9.72452 17.934L11.4747 18.9019ZM12.8759 13.1399L11.3642 12.7707L10.8897 14.7136L12.4015 15.0828L12.8759 13.1399ZM12.1117 13.5684C11.984 12.8447 11.916 11.9623 11.916 10.9121H9.91602C9.91602 12.0416 9.98863 13.0459 10.1422 13.916L12.1117 13.5684ZM11.916 10.9121V10.2793H9.91602V10.9121H11.916ZM11.7001 10.9C12.0453 10.464 12.5414 10.0524 13.223 9.68063L12.2653 7.92484C11.4 8.3968 10.6774 8.96963 10.132 9.65859L11.7001 10.9ZM13.2175 9.68363C13.8198 9.35998 14.6189 9.16992 15.6621 9.16992V7.16992C14.385 7.16992 13.2388 7.40174 12.2708 7.92184L13.2175 9.68363ZM15.6621 9.16992C16.3673 9.16992 16.9235 9.30361 17.3634 9.53203L18.285 7.75704C17.5062 7.35264 16.6209 7.16992 15.6621 7.16992V9.16992ZM17.377 9.53896C17.8265 9.76373 18.1474 10.0635 18.3714 10.4395L20.0896 9.41593C19.6573 8.69038 19.0406 8.13471 18.2714 7.7501L17.377 9.53896ZM18.3714 10.4395C18.597 10.8182 18.7227 11.2702 18.7227 11.8262H20.7227C20.7227 10.9524 20.5202 10.1388 20.0896 9.41593L18.3714 10.4395ZM18.7227 11.8262C18.7227 12.2621 18.6566 12.6622 18.5302 13.0323L20.4229 13.6786C20.6246 13.0878 20.7227 12.4683 20.7227 11.8262H18.7227ZM18.5327 13.0251C18.398 13.4099 18.1878 13.8415 17.8892 14.3213L19.5873 15.3779C19.945 14.803 20.227 14.2385 20.4204 13.6858L18.5327 13.0251ZM17.8928 14.3156C17.0889 15.5884 15.6569 17.4422 13.5651 19.8962L15.0872 21.1936C17.1908 18.7257 18.7001 16.7827 19.5838 15.3836L17.8928 14.3156ZM13.5124 21.1262C14.2343 22.1368 14.9455 23.0255 15.6466 23.7881L17.119 22.4345C16.4842 21.744 15.8243 20.9218 15.1399 19.9637L13.5124 21.1262ZM16.83 24.0058C17.1813 23.8301 17.5017 23.6018 17.7913 23.3275L16.4158 21.8756C16.26 22.0232 16.0999 22.1347 15.9356 22.2169L16.83 24.0058ZM17.7725 23.3449C18.0425 23.1019 18.3667 22.7696 18.739 22.3613L17.261 21.0137C16.9068 21.4023 16.6333 21.6794 16.4346 21.8583L17.7725 23.3449ZM18.7226 22.3787L19.1094 21.9744L17.6641 20.592L17.2774 20.9963L18.7226 22.3787ZM17.7836 22.0809L19.9457 23.7156L21.1519 22.1203L18.9898 20.4855L17.7836 22.0809ZM19.5496 22.8787C19.4716 24.8611 19.0454 26.2263 18.3933 27.102L19.9974 28.2965C20.9859 26.969 21.462 25.1467 21.5481 22.9573L19.5496 22.8787ZM18.3922 27.1034C17.7687 27.9437 16.992 28.334 15.9785 28.334V30.334C17.6369 30.334 19.0047 29.6344 19.9984 28.2951L18.3922 27.1034ZM15.9785 28.334C14.7254 28.334 13.9432 27.9624 13.4437 27.3599L11.9039 28.6362C12.881 29.8149 14.302 30.334 15.9785 30.334V28.334ZM13.4437 27.3599C12.845 26.6376 12.3558 25.5492 12.0356 24.0145L10.0777 24.423C10.4372 26.1461 11.0261 27.5773 11.9039 28.6362L13.4437 27.3599ZM10.3223 23.54C9.04167 24.9254 7.91881 26.0826 6.95235 27.0145L8.34062 28.4542C9.34291 27.4877 10.4935 26.3012 11.791 24.8975L10.3223 23.54ZM6.95251 27.0144C6.47367 27.4759 6.08853 27.8282 5.79299 28.0776C5.6452 28.2024 5.52743 28.2949 5.43704 28.36C5.33928 28.4305 5.30228 28.4478 5.31141 28.4436L6.14953 30.2595C6.43865 30.1261 6.76699 29.8727 7.08299 29.606C7.42612 29.3164 7.84664 28.9303 8.34046 28.4544L6.95251 27.0144ZM5.73047 28.3516C5.16538 28.3516 4.63504 28.2849 4.1364 28.1552L3.63313 30.0909C4.30637 30.2659 5.0065 30.3516 5.73047 30.3516V28.3516ZM4.1364 28.1552C3.67144 28.0343 3.44803 27.8738 3.34324 27.7516L1.82473 29.0531C2.28244 29.5871 2.92621 29.9071 3.63313 30.0909L4.1364 28.1552ZM3.581 28.3251C3.45331 26.6768 3.3663 25.0465 3.3199 23.4341L1.32073 23.4917C1.36808 25.1371 1.45685 26.7998 1.58697 28.4796L3.581 28.3251ZM3.32008 23.4415C3.28512 21.81 3.26758 19.878 3.26758 17.6445H1.26758C1.26758 19.8876 1.28519 21.8345 1.32054 23.4843L3.32008 23.4415ZM30.3223 17.627L30.1556 18.613L30.1579 18.6133L30.3223 17.627ZM32.6426 18.1367L32.37 19.0988L33.6426 19.4594V18.1367H32.6426ZM32.6074 16.3789L31.6078 16.4052L31.6081 16.4183L31.6088 16.4315L32.6074 16.3789ZM32.5371 15.5L33.5073 15.2575L33.4778 15.1395L33.4209 15.0321L32.5371 15.5ZM31.623 14.8848L31.2291 15.8039L31.2369 15.8072L31.623 14.8848ZM27.0527 14.832L27.273 15.8075L27.2844 15.8048L27.0527 14.832ZM24.627 15.5L23.7706 16.0163L24.1772 16.6907L24.9281 16.4536L24.627 15.5ZM23.4668 13.2324L22.5342 13.5934L22.5378 13.6026L22.5415 13.6116L23.4668 13.2324ZM23.0977 10.3848L22.4837 9.59541L22.1716 9.83819L22.1099 10.2288L23.0977 10.3848ZM38.6367 21.125L37.6669 20.881L37.6658 20.8854L38.6367 21.125ZM37.9512 23.8848L37.0025 23.5685L36.2991 25.6788L38.3443 24.8042L37.9512 23.8848ZM40.5 22.7949L41.2303 22.1118L40.7514 21.5999L40.1068 21.8754L40.5 22.7949ZM41.3965 24.1309L40.4981 24.5701L40.504 24.5822L40.5103 24.5941L41.3965 24.1309ZM41.9062 25.9238L42.8124 26.3467L42.9294 26.0961L42.9009 25.8209L41.9062 25.9238ZM40.834 27.2773L41.5335 27.9921L41.5411 27.9845L40.834 27.2773ZM34.1016 28.4902L33.3423 29.1411L33.3499 29.1498L34.1016 28.4902ZM33.5918 24.6934L34.5525 24.9709L34.8272 24.02L33.8791 23.7355L33.5918 24.6934ZM33.0645 24.5352L33.3518 23.5773L32.2758 23.2545L32.0798 24.3607L33.0645 24.5352ZM24.9961 28.6484L24.4741 29.5015L24.4835 29.5071L24.9961 28.6484ZM23.0801 26.5742L22.1996 27.0483L22.2022 27.0531L23.0801 26.5742ZM23.8008 18.9453L24.5203 19.6398L24.5243 19.6356L23.8008 18.9453ZM30.041 24.1133L29.9556 25.1096L30.0975 25.1218L30.2371 25.0939L30.041 24.1133ZM31.0781 23.6211L30.5289 22.7853L30.5178 22.7928L31.0781 23.6211ZM32.7305 21.582L33.7159 21.7519L33.7518 21.5441L33.7006 21.3395L32.7305 21.582ZM32.625 21.1602L33.5951 20.9176L33.4302 20.2578L32.7559 20.1688L32.625 21.1602ZM29.4082 21.1777L29.0201 20.2561L28.8113 20.344L28.6608 20.5134L29.4082 21.1777ZM29.127 23.6035L28.2753 24.1276L28.2825 24.1393L28.29 24.1508L29.127 23.6035ZM28.0371 18.416C28.6621 18.416 29.3671 18.4797 30.1556 18.613L30.4889 16.6409C29.6134 16.493 28.795 16.416 28.0371 16.416V18.416ZM30.1579 18.6133C30.9711 18.7489 31.7078 18.9112 32.37 19.0988L32.9152 17.1746C32.1711 16.9638 31.3609 16.7863 30.4867 16.6406L30.1579 18.6133ZM33.6426 18.1367V17.5918H31.6426V18.1367H33.6426ZM33.6426 17.5918C33.6426 17.2076 33.6302 16.7854 33.606 16.3263L31.6088 16.4315C31.6315 16.863 31.6426 17.2494 31.6426 17.5918H33.6426ZM33.6071 16.3526C33.5959 15.9282 33.5736 15.523 33.5073 15.2575L31.567 15.7425C31.5636 15.7292 31.5734 15.7696 31.5842 15.9049C31.594 16.0271 31.6022 16.1923 31.6078 16.4052L33.6071 16.3526ZM33.4209 15.0321C33.2572 14.7229 33.0003 14.5102 32.7879 14.3672C32.562 14.2151 32.2953 14.0821 32.0092 13.9623L31.2369 15.8072C31.4547 15.8984 31.5923 15.9733 31.6711 16.0264C31.7092 16.052 31.7216 16.0646 31.7187 16.0617C31.7163 16.0594 31.6858 16.0293 31.6533 15.9679L33.4209 15.0321ZM32.017 13.9656C31.3255 13.6693 30.3412 13.5684 29.1973 13.5684V15.5684C30.3033 15.5684 30.9362 15.6784 31.2291 15.8039L32.017 13.9656ZM29.1973 13.5684C28.4207 13.5684 27.628 13.6671 26.8211 13.8592L27.2844 15.8048C27.9541 15.6454 28.591 15.5684 29.1973 15.5684V13.5684ZM26.8325 13.8566C26.0729 14.0281 25.2367 14.2588 24.3258 14.5464L24.9281 16.4536C25.7984 16.1787 26.5795 15.9641 27.273 15.8075L26.8325 13.8566ZM25.4833 14.9837C25.0242 14.2221 24.6622 13.5122 24.3921 12.8532L22.5415 13.6116C22.8573 14.3823 23.2688 15.1842 23.7706 16.0163L25.4833 14.9837ZM24.3994 12.8714C24.1594 12.2516 24.0449 11.6471 24.0449 11.0527H22.0449C22.0449 11.9114 22.2117 12.7601 22.5342 13.5934L24.3994 12.8714ZM24.0449 11.0527C24.0449 10.8829 24.0583 10.7124 24.0854 10.5407L22.1099 10.2288C22.0667 10.5024 22.0449 10.7772 22.0449 11.0527H24.0449ZM23.7116 11.1741C25.3942 9.86545 27.6164 9.16992 30.4629 9.16992V7.16992C27.286 7.16992 24.598 7.95095 22.4837 9.59541L23.7116 11.1741ZM30.4629 9.16992C32.0541 9.16992 33.4336 9.34945 34.6132 9.69262L35.1719 7.77223C33.7734 7.3654 32.1999 7.16992 30.4629 7.16992V9.16992ZM34.6132 9.69262C35.6957 10.0075 36.578 10.6101 37.2826 11.5231L38.8659 10.3012C37.9064 9.05787 36.6676 8.20733 35.1719 7.77223L34.6132 9.69262ZM37.2826 11.5231C37.9303 12.3624 38.3223 13.6437 38.3223 15.5H40.3223C40.3223 13.3954 39.8822 11.6181 38.8659 10.3012L37.2826 11.5231ZM38.3223 15.5C38.3223 17.354 38.1033 19.1469 37.6669 20.881L39.6065 21.369C40.0842 19.4703 40.3223 17.5132 40.3223 15.5H38.3223ZM37.6658 20.8854C37.4432 21.7877 37.2749 22.4682 37.1608 22.9274C37.1038 23.1571 37.0605 23.3306 37.0308 23.4486C36.9918 23.6035 36.9897 23.6069 37.0025 23.5685L38.8999 24.201C38.9185 24.145 38.9493 24.0202 38.9704 23.9364C39.0008 23.8156 39.0447 23.6398 39.1019 23.4095C39.2163 22.9488 39.3849 22.267 39.6076 21.3646L37.6658 20.8854ZM38.3443 24.8042L40.8932 23.7144L40.1068 21.8754L37.558 22.9653L38.3443 24.8042ZM39.7697 23.4781C40.0308 23.7572 40.2763 24.1163 40.4981 24.5701L42.2949 23.6916C42.0011 23.0907 41.6489 22.5592 41.2303 22.1118L39.7697 23.4781ZM40.5103 24.5941C40.7119 24.9798 40.852 25.4514 40.9116 26.0267L42.9009 25.8209C42.8198 25.0369 42.6202 24.3131 42.2827 23.6676L40.5103 24.5941ZM41.0001 25.5009C40.9134 25.6867 40.6611 26.036 40.1269 26.5702L41.5411 27.9845C42.1084 27.4171 42.571 26.8641 42.8124 26.3467L41.0001 25.5009ZM40.1345 26.5627C39.6629 27.0243 39.0706 27.4506 38.3446 27.835L39.2804 29.6025C40.1481 29.1431 40.9035 28.6086 41.5334 27.992L40.1345 26.5627ZM38.3446 27.835C37.686 28.1837 37.0139 28.3516 36.3164 28.3516V30.3516C37.3533 30.3516 38.3453 30.0976 39.2804 29.6025L38.3446 27.835ZM36.3164 28.3516C35.5473 28.3516 35.1179 28.1323 34.8532 27.8306L33.3499 29.1498C34.093 29.9966 35.1402 30.3516 36.3164 30.3516V28.3516ZM34.8608 27.8394C34.5548 27.4824 34.3633 26.9852 34.3633 26.2578H32.3633C32.3633 27.3586 32.664 28.3497 33.3423 29.141L34.8608 27.8394ZM34.3633 26.2578C34.3633 25.842 34.4245 25.4138 34.5525 24.9709L32.6311 24.4158C32.4544 25.0276 32.3633 25.6424 32.3633 26.2578H34.3633ZM33.8791 23.7355L33.3518 23.5773L32.7771 25.493L33.3044 25.6512L33.8791 23.7355ZM32.0798 24.3607C31.7766 26.0715 31.1705 27.0201 30.4352 27.4888L31.5101 29.1753C32.9076 28.2846 33.696 26.702 34.0491 24.7097L32.0798 24.3607ZM30.4352 27.4888C29.5326 28.064 28.542 28.3516 27.4395 28.3516V30.3516C28.915 30.3516 30.2799 29.9594 31.5101 29.1753L30.4352 27.4888ZM27.4395 28.3516C26.7912 28.3516 26.1523 28.1741 25.5087 27.7898L24.4835 29.5071C25.4102 30.0603 26.4002 30.3516 27.4395 30.3516V28.3516ZM25.5181 27.7955C24.8991 27.4167 24.3763 26.8623 23.958 26.0954L22.2022 27.0531C22.7682 28.0908 23.5228 28.9192 24.4741 29.5014L25.5181 27.7955ZM23.9605 26.1001C23.5594 25.3552 23.3418 24.4571 23.3418 23.375H21.3418C21.3418 24.7304 21.6163 25.9651 22.1996 27.0483L23.9605 26.1001ZM23.3418 23.375C23.3418 21.5868 23.7878 20.3988 24.5203 19.6398L23.0812 18.2509C21.8685 19.5075 21.3418 21.2726 21.3418 23.375H23.3418ZM24.5243 19.6356C25.2542 18.8706 26.3691 18.416 28.0371 18.416V16.416C26.002 16.416 24.2927 16.981 23.0772 18.255L24.5243 19.6356ZM30.2371 25.0939C30.7158 24.9981 31.1891 24.7534 31.6384 24.4494L30.5178 22.7928C30.1703 23.0279 29.9522 23.1112 29.8449 23.1327L30.2371 25.0939ZM31.6273 24.4568C32.118 24.1344 32.5537 23.7478 32.9323 23.2992L31.4037 22.0094C31.1494 22.3108 30.8586 22.5688 30.5289 22.7854L31.6273 24.4568ZM32.9323 23.2992C33.3175 22.8426 33.617 22.3257 33.7159 21.7519L31.745 21.4121C31.7268 21.518 31.6513 21.716 31.4037 22.0094L32.9323 23.2992ZM33.7006 21.3395L33.5951 20.9176L31.6549 21.4027L31.7603 21.8246L33.7006 21.3395ZM32.7559 20.1688C32.0866 20.0804 31.3804 20.0371 30.6387 20.0371V22.0371C31.3032 22.0371 31.9213 22.0759 32.4941 22.1515L32.7559 20.1688ZM30.6387 20.0371C30.0484 20.0371 29.45 20.0751 29.0201 20.2561L29.7963 22.0994C29.7795 22.1064 29.829 22.0849 29.9964 22.0658C30.1512 22.0481 30.3626 22.0371 30.6387 22.0371V20.0371ZM28.6608 20.5134C28.1397 21.0996 27.8457 21.7995 27.8457 22.584H29.8457C29.8457 22.3372 29.9267 22.0997 30.1556 21.8421L28.6608 20.5134ZM27.8457 22.584C27.8457 23.1347 27.986 23.6576 28.2753 24.1276L29.9786 23.0794C29.8929 22.9401 29.8457 22.7833 29.8457 22.584H27.8457ZM28.29 24.1508C28.6809 24.7486 29.2847 25.0521 29.9556 25.1096L30.1264 23.1169C30.0373 23.1093 30.0004 23.0908 29.992 23.0861C29.9871 23.0834 29.9843 23.0812 29.9818 23.0788C29.9791 23.0763 29.9728 23.0699 29.9639 23.0563L28.29 24.1508ZM44.5078 18.5586L45.5067 18.6067L45.5067 18.6062L44.5078 18.5586ZM44.877 14.2344L45.8715 14.3387L45.9733 13.3689L45.0063 13.2428L44.877 14.2344ZM42.8555 13.9707L41.9039 14.2781L42.0985 14.8804L42.7261 14.9623L42.8555 13.9707ZM42.3633 11.9316L41.3701 12.0485L41.3713 12.0581L41.3726 12.0676L42.3633 11.9316ZM42.2578 9.61133L41.5993 8.85875L41.2578 9.15756V9.61133H42.2578ZM43.1895 9.03125L43.6463 9.92086L43.6552 9.91617L43.1895 9.03125ZM44.7539 8.43359L45.0186 9.398L45.0311 9.39442L44.7539 8.43359ZM49.6055 9.08398L48.8846 9.77713L48.8915 9.78419L49.6055 9.08398ZM50.2031 14.5859L51.188 14.7594L51.1887 14.7552L50.2031 14.5859ZM49.834 17.6973L49.2527 18.511L49.2939 18.5404L49.3378 18.5655L49.834 17.6973ZM50.3086 17.6445L51.2787 17.8871L49.3894 17.2506L50.3086 17.6445ZM50.7129 15.8691L51.6877 16.092L51.6897 16.0834L51.6915 16.0748L50.7129 15.8691ZM51.75 11.9141L50.808 11.5784L50.8046 11.5881L51.75 11.9141ZM60.2754 9.64648L59.4824 10.2557L59.486 10.2604L60.2754 9.64648ZM60.75 17.627L59.7857 17.362L59.75 17.492V17.627H60.75ZM60.873 17.8027L60.2918 18.6165L60.333 18.6459L60.3769 18.671L60.873 17.8027ZM61.3477 17.75L62.2668 18.1439L62.2984 18.0703L62.3178 17.9925L61.3477 17.75ZM61.5938 16.7656L62.5639 17.0082L62.5654 17.002L61.5938 16.7656ZM62.8418 12.4414L61.9031 12.0966L61.9001 12.1051L62.8418 12.4414ZM71.8242 9.91016L70.9974 10.4727L71.0014 10.4785L71.8242 9.91016ZM72.6504 17.873L71.668 17.6859L71.6664 17.695L72.6504 17.873ZM71.9297 20.9668L70.9744 20.6708L70.9708 20.6832L71.9297 20.9668ZM71.0156 23.8496L70.0669 23.5334L69.8715 24.1197L70.3085 24.5567L71.0156 23.8496ZM71.0508 23.8848L70.3437 24.5919L70.8182 25.0664L71.4372 24.8071L71.0508 23.8848ZM73.6523 22.7949L74.3039 22.0364L73.8355 21.634L73.266 21.8726L73.6523 22.7949ZM75.252 25.9238H76.252V25.8655L76.2452 25.8075L75.252 25.9238ZM74.4609 26.9434L75.2043 27.6124L75.2108 27.605L74.4609 26.9434ZM72.3691 28.5957L72.8767 29.4573L72.8802 29.4552L72.3691 28.5957ZM65.7246 20.457L64.7254 20.4157L64.7252 20.4223L65.7246 20.457ZM66.0234 15.8867L67.0189 15.9819L67.0695 15.4527L66.6591 15.1148L66.0234 15.8867ZM65.1973 15.623L65.2306 14.6236L64.807 14.6095L64.5022 14.9041L65.1973 15.623ZM63.8789 17.8555L64.786 18.2763L64.7877 18.2728L63.8789 17.8555ZM62.4199 21.5117L63.3651 21.8382L63.366 21.8356L62.4199 21.5117ZM61.5762 24.5352L60.5889 24.3759L60.5647 24.526L60.5862 24.6766L61.5762 24.5352ZM62.332 27.9453L63.2158 28.4132L63.4082 28.0498L63.2893 27.6561L62.332 27.9453ZM55.5469 28.7012L54.8919 29.4569L54.904 29.4673L54.9163 29.4773L55.5469 28.7012ZM55.2832 28.4023H56.2832V28.347L56.2771 28.2919L55.2832 28.4023ZM55.1953 27.5762L54.2005 27.6782L54.2008 27.6809L55.1953 27.5762ZM55.0547 25.6777L54.0563 25.7348L54.0564 25.7356L55.0547 25.6777ZM55.2129 19.1387L56.2078 19.2397L56.2097 19.2204L56.2109 19.2011L55.2129 19.1387ZM55.4062 15.8867H56.4062V15.4148L56.042 15.1148L55.4062 15.8867ZM54.5801 15.623L54.6134 14.6236L54.2564 14.6117L53.9726 14.8287L54.5801 15.623ZM51.082 22.3379L50.1577 21.9564L50.1098 22.0723L50.0921 22.1965L51.082 22.3379ZM51.3105 25.1855L50.3258 25.3593L50.3261 25.3613L51.3105 25.1855ZM51.9609 27.9453L52.8447 28.4132L53.0369 28.0501L52.9184 27.6568L51.9609 27.9453ZM46.1426 29.1406L45.8795 30.1054L45.8849 30.1069L46.1426 29.1406ZM45.0527 28.7012L44.4388 29.4905L44.4528 29.5014L44.4672 29.5119L45.0527 28.7012ZM44.7363 28.4023H45.7363V28.347L45.7302 28.2919L44.7363 28.4023ZM44.6484 27.5762L43.6537 27.6782L43.6539 27.6809L44.6484 27.5762ZM44.5078 25.6777L43.5094 25.7348L43.5095 25.7356L44.5078 25.6777ZM45.4375 22.8828C45.4375 20.9766 45.461 19.5546 45.5067 18.6067L43.509 18.5105C43.4609 19.5079 43.4375 20.9687 43.4375 22.8828H45.4375ZM45.5067 18.6062C45.5522 17.6509 45.6728 16.2323 45.8715 14.3387L43.8824 14.13C43.6827 16.0334 43.5572 17.4975 43.5089 18.511L45.5067 18.6062ZM45.0063 13.2428L42.9848 12.9791L42.7261 14.9623L44.7476 15.226L45.0063 13.2428ZM43.807 13.6633C43.5735 12.9405 43.4259 12.3198 43.354 11.7957L41.3726 12.0676C41.4647 12.7388 41.6452 13.4774 41.9039 14.2781L43.807 13.6633ZM43.3564 11.8148C43.2925 11.2714 43.2578 10.541 43.2578 9.61133H41.2578C41.2578 10.5801 41.2934 11.3966 41.3701 12.0485L43.3564 11.8148ZM42.9163 10.3639C43.0088 10.283 43.2301 10.1345 43.6463 9.92082L42.7326 8.14168C42.2816 8.3733 41.8819 8.61153 41.5993 8.85875L42.9163 10.3639ZM43.6552 9.91617C44.0239 9.72213 44.4753 9.54707 45.0186 9.39792L44.4892 7.46927C43.8372 7.64825 43.2457 7.87162 42.7237 8.14633L43.6552 9.91617ZM45.0311 9.39442C45.5523 9.24407 46.0743 9.16992 46.5996 9.16992V7.16992C45.8828 7.16992 45.1743 7.27156 44.4767 7.47277L45.0311 9.39442ZM46.5996 9.16992C47.9203 9.16992 48.5812 9.46155 48.8846 9.77709L50.3263 8.39088C49.4578 7.48767 48.1148 7.16992 46.5996 7.16992V9.16992ZM48.8915 9.78419C49.2398 10.1393 49.502 10.7567 49.502 11.8262H51.502C51.502 10.4581 51.1665 9.24744 50.3194 8.38378L48.8915 9.78419ZM49.502 11.8262C49.502 12.4227 49.413 13.2783 49.2176 14.4167L51.1887 14.7552C51.3917 13.5733 51.502 12.589 51.502 11.8262H49.502ZM49.2183 14.4125C49.0541 15.3449 48.9305 16.0586 48.8478 16.5519C48.8065 16.7981 48.7748 16.9929 48.7532 17.134C48.7425 17.2041 48.7335 17.2656 48.727 17.3157C48.724 17.3385 48.7109 17.4323 48.7109 17.5215H50.7109C50.7109 17.5873 50.703 17.63 50.7103 17.574C50.714 17.5454 50.7204 17.5005 50.7302 17.4365C50.7496 17.3096 50.7795 17.1257 50.8202 16.8826C50.9016 16.3975 51.024 15.6903 51.188 14.7594L49.2183 14.4125ZM48.7109 17.5215C48.7109 18.0788 49.0944 18.3979 49.2527 18.511L50.4152 16.8835C50.4318 16.8954 50.4956 16.9426 50.5609 17.0359C50.6317 17.1371 50.7109 17.304 50.7109 17.5215H48.7109ZM49.3378 18.5655C49.5697 18.698 49.8285 18.7676 50.0977 18.7676V16.7676C50.1794 16.7676 50.2623 16.7903 50.3301 16.829L49.3378 18.5655ZM50.0977 18.7676C50.2763 18.7676 50.5064 18.733 50.7334 18.6006C50.9717 18.4615 51.1343 18.2565 51.2277 18.0385L49.3894 17.2506C49.4477 17.1146 49.5576 16.9711 49.7256 16.873C49.8822 16.7817 50.0245 16.7676 50.0977 16.7676V18.7676ZM49.3385 17.402C49.3387 17.4009 49.3399 17.3962 49.3416 17.3898C49.3424 17.3869 49.3442 17.3801 49.3467 17.3714C49.3468 17.3711 49.3555 17.3395 49.3696 17.3013C49.3742 17.289 49.3867 17.2581 49.3947 17.2396C49.409 17.2089 49.4586 17.1192 49.4967 17.0623C49.6216 16.9198 50.3026 16.6471 50.8358 16.7978C51.0976 17.0337 51.2883 17.45 51.3038 17.5566C51.3069 17.6031 51.3075 17.6754 51.3064 17.7009C51.3054 17.717 51.3032 17.744 51.3021 17.755C51.2997 17.7764 51.2972 17.7931 51.2961 17.8C51.2938 17.8152 51.2916 17.827 51.2909 17.8305C51.2899 17.8357 51.2891 17.8398 51.2887 17.842C51.2868 17.8516 51.2854 17.8574 51.2876 17.8478C51.2901 17.8362 51.295 17.8143 51.3027 17.7802C51.3179 17.713 51.3422 17.6058 51.3759 17.4579C51.4432 17.1624 51.5471 16.7072 51.6877 16.092L49.738 15.6463C49.5974 16.2616 49.4933 16.7175 49.4258 17.0138C49.3921 17.1618 49.3674 17.2706 49.3518 17.3397C49.3441 17.3737 49.3383 17.3999 49.3346 17.4166C49.3336 17.421 49.3303 17.436 49.3275 17.4497C49.327 17.4524 49.3261 17.4569 49.3251 17.4624C49.3243 17.4663 49.3221 17.4784 49.3197 17.4938C49.3186 17.5008 49.3161 17.5176 49.3137 17.5391C49.3126 17.5501 49.3103 17.5771 49.3093 17.5932C49.3083 17.6188 49.3089 17.6911 49.312 17.7376C49.3275 17.8442 49.5182 18.2605 49.78 18.4964C50.3132 18.6471 50.9942 18.3744 51.1191 18.2319C51.1572 18.175 51.2068 18.0853 51.2211 18.0545C51.2291 18.0361 51.2416 18.0052 51.2463 17.9928C51.2604 17.9545 51.2692 17.9227 51.2693 17.9222C51.2719 17.9132 51.2738 17.9061 51.2747 17.9027C51.2766 17.8955 51.2781 17.8896 51.2787 17.8871L49.3385 17.402ZM51.6915 16.0748C52.0268 14.4794 52.3625 13.2053 52.6954 12.2401L50.8046 11.5881C50.4344 12.6618 50.0787 14.0245 49.7343 15.6635L51.6915 16.0748ZM52.692 12.2497C53.0018 11.3804 53.4866 10.6445 54.1518 10.0289L52.7935 8.56096C51.8884 9.39847 51.2248 10.4087 50.808 11.5784L52.692 12.2497ZM54.1518 10.0289C54.7076 9.51459 55.5079 9.20508 56.6719 9.20508V7.20508C55.1405 7.20508 53.808 7.62213 52.7935 8.56096L54.1518 10.0289ZM56.6719 9.20508C58.1491 9.20508 58.9979 9.62507 59.4824 10.2557L61.0684 9.03724C60.0763 7.74602 58.5228 7.20508 56.6719 7.20508V9.20508ZM59.486 10.2604C60.0501 10.9857 60.3828 12.0134 60.3828 13.4434H62.3828C62.3828 11.7093 61.9772 10.2057 61.0647 9.03254L59.486 10.2604ZM60.3828 13.4434C60.3828 14.5875 60.19 15.8911 59.7857 17.362L61.7143 17.8919C62.1538 16.2925 62.3828 14.8071 62.3828 13.4434H60.3828ZM59.75 17.627C59.75 18.1843 60.1335 18.5034 60.2918 18.6165L61.4543 16.989C61.4709 17.0008 61.5347 17.0481 61.6 17.1414C61.6708 17.2425 61.75 17.4095 61.75 17.627H59.75ZM60.3769 18.671C60.6088 18.8035 60.8675 18.873 61.1367 18.873V16.873C61.2184 16.873 61.3014 16.8957 61.3692 16.9345L60.3769 18.671ZM61.1367 18.873C61.3154 18.873 61.5455 18.8384 61.7724 18.7061C62.0108 18.567 62.1733 18.362 62.2668 18.1439L60.4285 17.3561C60.4868 17.22 60.5966 17.0765 60.7647 16.9785C60.9213 16.8871 61.0636 16.873 61.1367 16.873V18.873ZM62.3178 17.9925L62.5639 17.0082L60.6236 16.5231L60.3775 17.5075L62.3178 17.9925ZM62.5654 17.002C62.9825 15.2875 63.3891 13.8822 63.7835 12.7777L61.9001 12.1051C61.4742 13.2975 61.0488 14.775 60.6221 16.5293L62.5654 17.002ZM63.7805 12.7862C64.1544 11.7684 64.7044 10.9032 65.4298 10.1778L64.0155 8.7636C63.0769 9.70228 62.373 10.8176 61.9031 12.0966L63.7805 12.7862ZM65.4298 10.1778C66.0611 9.5465 66.8899 9.20508 68.0098 9.20508V7.20508C66.4343 7.20508 65.0717 7.70741 64.0155 8.7636L65.4298 10.1778ZM68.0098 9.20508C69.5545 9.20508 70.4629 9.6871 70.9975 10.4727L72.651 9.34761C71.6386 7.85977 70.0041 7.20508 68.0098 7.20508V9.20508ZM71.0014 10.4785C71.6455 11.411 72.002 12.6291 72.002 14.1992H74.002C74.002 12.324 73.5733 10.6828 72.647 9.34183L71.0014 10.4785ZM72.002 14.1992C72.002 15.3535 71.891 16.5154 71.6681 17.6859L73.6327 18.0602C73.8785 16.7697 74.002 15.4825 74.002 14.1992H72.002ZM71.6664 17.695C71.4481 18.9012 71.2164 19.8901 70.9745 20.6708L72.8849 21.2628C73.1586 20.3794 73.4074 19.3059 73.6344 18.0511L71.6664 17.695ZM70.9708 20.6832C70.7287 21.5014 70.4277 22.4511 70.0669 23.5334L71.9643 24.1658C72.3301 23.0684 72.6385 22.0962 72.8886 21.2504L70.9708 20.6832ZM70.3085 24.5567L70.3437 24.5919L71.7579 23.1777L71.7227 23.1425L70.3085 24.5567ZM71.4372 24.8071L74.0387 23.7173L73.266 21.8726L70.6644 22.9624L71.4372 24.8071ZM73.0008 23.5535C73.7071 24.1602 74.1328 24.9652 74.2587 26.0402L76.2452 25.8075C76.0664 24.2809 75.4257 23 74.3039 22.0364L73.0008 23.5535ZM74.252 25.9238C74.252 25.8035 74.2747 25.7114 74.288 25.6651C74.3027 25.6141 74.3186 25.5764 74.3277 25.5563C74.3452 25.5174 74.3585 25.4973 74.3545 25.5037C74.3477 25.5145 74.3219 25.5528 74.2641 25.6272C74.1517 25.7721 73.9704 25.9878 73.7111 26.2817L75.2108 27.605C75.4788 27.3012 75.693 27.0482 75.8443 26.8532C75.9183 26.7578 75.9914 26.6583 76.0505 26.5637C76.0795 26.5173 76.1175 26.4525 76.1515 26.377C76.1727 26.3299 76.252 26.1548 76.252 25.9238H74.252ZM73.7176 26.2744C73.2735 26.7679 72.6616 27.2584 71.8581 27.7362L72.8802 29.4552C73.811 28.9018 74.5937 28.2907 75.2042 27.6123L73.7176 26.2744ZM71.8616 27.7341C71.178 28.1368 70.373 28.3516 69.416 28.3516V30.3516C70.6856 30.3516 71.8494 30.0625 72.8767 29.4573L71.8616 27.7341ZM69.416 28.3516C68.4889 28.3516 67.8259 28.107 67.3391 27.6931L66.0438 29.217C66.9631 29.9985 68.1165 30.3516 69.416 30.3516V28.3516ZM67.3391 27.6931C66.9601 27.371 66.6367 26.709 66.6367 25.3965H64.6367C64.6367 26.9668 65.0165 28.3439 66.0438 29.217L67.3391 27.6931ZM66.6367 25.3965C66.6367 23.8032 66.6658 22.1683 66.724 20.4917L64.7252 20.4223C64.6662 22.1208 64.6367 23.7789 64.6367 25.3965H66.6367ZM66.7238 20.4984C66.7935 18.8128 66.8921 17.3078 67.0189 15.9819L65.028 15.7915C64.897 17.1609 64.7963 18.7028 64.7255 20.4157L66.7238 20.4984ZM66.6591 15.1148C66.2373 14.7674 65.7235 14.64 65.2306 14.6236L65.164 16.6225C65.3742 16.6295 65.4111 16.6779 65.3877 16.6586L66.6591 15.1148ZM64.5022 14.9041C63.9983 15.3912 63.4921 16.3015 62.9701 17.4382L64.7877 18.2728C65.3204 17.1126 65.6931 16.5346 65.8923 16.342L64.5022 14.9041ZM62.9718 17.4346C62.4284 18.6058 61.9294 19.8572 61.4738 21.1878L63.366 21.8356C63.8011 20.5647 64.2747 19.3785 64.786 18.2763L62.9718 17.4346ZM61.4747 21.1852C61.0236 22.4911 60.72 23.5634 60.5889 24.3759L62.5634 24.6944C62.6667 24.0538 62.9256 23.1105 63.3651 21.8382L61.4747 21.1852ZM60.5862 24.6766C60.7575 25.8757 61.0205 27.0618 61.3748 28.2345L63.2893 27.6561C62.9639 26.5789 62.7229 25.4915 62.5661 24.3937L60.5862 24.6766ZM61.4482 27.4774C61.3941 27.5798 61.2085 27.7934 60.6513 28.0222L61.4112 29.8723C62.1665 29.5621 62.8481 29.1077 63.2158 28.4132L61.4482 27.4774ZM60.6513 28.0222C60.1502 28.2281 59.4795 28.3516 58.6055 28.3516V30.3516C59.6533 30.3516 60.5998 30.2055 61.4112 29.8723L60.6513 28.0222ZM58.6055 28.3516C57.7764 28.3516 57.2033 28.2826 56.8411 28.1791L56.2917 30.1021C56.9139 30.2799 57.7002 30.3516 58.6055 30.3516V28.3516ZM56.8411 28.1791C56.6219 28.1165 56.457 28.0582 56.3382 28.007C56.213 27.953 56.1727 27.9212 56.1775 27.9251L54.9163 29.4773C55.2722 29.7665 55.7826 29.9567 56.2917 30.1021L56.8411 28.1791ZM56.2018 27.9455C56.167 27.9153 56.141 27.8916 56.1224 27.8738C56.103 27.8553 56.0967 27.848 56.099 27.8506C56.1004 27.8522 56.1065 27.8592 56.1154 27.8709C56.1239 27.882 56.1393 27.9031 56.1572 27.9329C56.1741 27.9612 56.2016 28.0109 56.2264 28.0788C56.2503 28.144 56.2832 28.2569 56.2832 28.4023H54.2832C54.2832 28.6904 54.4035 28.8975 54.4422 28.9619C54.4967 29.0528 54.5566 29.1254 54.5993 29.1738C54.6867 29.2729 54.7913 29.3697 54.8919 29.4569L56.2018 27.9455ZM56.2771 28.2919C56.2658 28.19 56.2368 27.918 56.1898 27.4715L54.2008 27.6809C54.2476 28.125 54.2772 28.4038 54.2893 28.5128L56.2771 28.2919ZM56.1901 27.4741C56.1454 27.0388 56.0996 26.423 56.053 25.6199L54.0564 25.7356C54.1036 26.5497 54.1514 27.1995 54.2005 27.6782L56.1901 27.4741ZM56.0531 25.6207C56.0075 24.8236 55.9844 23.9115 55.9844 22.8828H53.9844C53.9844 23.94 54.0081 24.8912 54.0563 25.7348L56.0531 25.6207ZM55.9844 22.8828C55.9844 21.9329 56.0573 20.7213 56.2078 19.2397L54.218 19.0376C54.0638 20.5561 53.9844 21.8406 53.9844 22.8828H55.9844ZM56.2109 19.2011C56.2219 19.0261 56.256 18.5923 56.3149 17.8858L54.3218 17.7197C54.2635 18.4194 54.2273 18.8762 54.2148 19.0763L56.2109 19.2011ZM56.3149 17.8858C56.3753 17.161 56.4062 16.4941 56.4062 15.8867H54.4062C54.4062 16.4278 54.3786 17.0382 54.3218 17.7197L56.3149 17.8858ZM56.042 15.1148C55.6202 14.7674 55.1063 14.64 54.6134 14.6236L54.5468 16.6225C54.757 16.6295 54.7939 16.6779 54.7705 16.6586L56.042 15.1148ZM53.9726 14.8287C53.7738 14.9807 53.6189 15.2064 53.5336 15.3334C53.42 15.5025 53.2897 15.7177 53.1453 15.9701C52.855 16.4772 52.4788 17.1853 52.0193 18.0868L53.8011 18.9952C54.2555 18.1037 54.6147 17.429 54.8811 16.9635C55.015 16.7296 55.1183 16.561 55.1937 16.4488C55.2973 16.2946 55.2868 16.3415 55.1875 16.4174L53.9726 14.8287ZM52.0193 18.0868C51.1058 19.8786 50.4794 21.1767 50.1577 21.9564L52.0064 22.7194C52.294 22.0225 52.8864 20.7894 53.8011 18.9952L52.0193 18.0868ZM50.0921 22.1965C50.0625 22.4033 50.0469 22.6089 50.0469 22.8125H52.0469C52.0469 22.7114 52.0547 22.6006 52.072 22.4793L50.0921 22.1965ZM50.0469 22.8125C50.0469 23.4838 50.146 24.3407 50.3258 25.3593L52.2953 25.0118C52.1235 24.0382 52.0469 23.3131 52.0469 22.8125H50.0469ZM50.3261 25.3613C50.5079 26.3794 50.7333 27.3373 51.0035 28.2339L52.9184 27.6568C52.673 26.8424 52.4647 25.9605 52.295 25.0098L50.3261 25.3613ZM51.0771 27.4774C51.023 27.5798 50.8374 27.7934 50.2802 28.0222L51.0401 29.8723C51.7954 29.5621 52.477 29.1077 52.8447 28.4132L51.0771 27.4774ZM50.2802 28.0222C49.7791 28.2281 49.1084 28.3516 48.2344 28.3516V30.3516C49.2822 30.3516 50.2288 30.2055 51.0401 29.8723L50.2802 28.0222ZM48.2344 28.3516C47.4096 28.3516 46.8092 28.2835 46.4002 28.1744L45.8849 30.1069C46.5306 30.279 47.3248 30.3516 48.2344 30.3516V28.3516ZM46.4057 28.1759C45.91 28.0407 45.695 27.9315 45.6382 27.8905L44.4672 29.5119C44.8324 29.7756 45.3439 29.9593 45.8795 30.1054L46.4057 28.1759ZM45.6667 27.9118C45.5692 27.836 45.5198 27.7932 45.5021 27.7764C45.4908 27.7658 45.5121 27.7842 45.5436 27.8245C45.5591 27.8443 45.5948 27.8917 45.6306 27.9612C45.6491 27.9973 45.6735 28.0504 45.694 28.1179C45.7143 28.1843 45.7363 28.2821 45.7363 28.4023H43.7363C43.7363 28.6365 43.8171 28.8081 43.852 28.8759C43.8943 28.9582 43.9399 29.0204 43.9686 29.0571C44.0265 29.1311 44.0874 29.1913 44.1288 29.2304C44.2165 29.3133 44.3253 29.4022 44.4388 29.4905L45.6667 27.9118ZM45.7302 28.2919C45.7189 28.19 45.6899 27.918 45.6429 27.4715L43.6539 27.6809C43.7007 28.125 43.7303 28.4038 43.7424 28.5128L45.7302 28.2919ZM45.6432 27.4741C45.5986 27.0388 45.5527 26.423 45.5061 25.6199L43.5095 25.7356C43.5567 26.5497 43.6046 27.1995 43.6537 27.6782L45.6432 27.4741ZM45.5062 25.6207C45.4606 24.8236 45.4375 23.9115 45.4375 22.8828H43.4375C43.4375 23.94 43.4612 24.8912 43.5094 25.7348L45.5062 25.6207ZM84.3223 17.627L84.1556 18.613L84.1579 18.6133L84.3223 17.627ZM86.6426 18.1367L86.37 19.0988L87.6426 19.4594V18.1367H86.6426ZM86.6074 16.3789L85.6078 16.4052L85.6081 16.4183L85.6088 16.4315L86.6074 16.3789ZM86.5371 15.5L87.5073 15.2575L87.4778 15.1395L87.4209 15.0321L86.5371 15.5ZM85.623 14.8848L85.2291 15.8039L85.2369 15.8072L85.623 14.8848ZM81.0527 14.832L81.273 15.8075L81.2844 15.8048L81.0527 14.832ZM78.627 15.5L77.7706 16.0163L78.1772 16.6907L78.9281 16.4536L78.627 15.5ZM77.4668 13.2324L76.5342 13.5934L76.5378 13.6026L76.5415 13.6116L77.4668 13.2324ZM77.0977 10.3848L76.4837 9.59541L76.1716 9.83819L76.1099 10.2288L77.0977 10.3848ZM92.6367 21.125L91.6669 20.881L91.6658 20.8854L92.6367 21.125ZM91.9512 23.8848L91.0025 23.5685L90.2991 25.6788L92.3443 24.8042L91.9512 23.8848ZM94.5 22.7949L95.2303 22.1118L94.7514 21.5999L94.1068 21.8754L94.5 22.7949ZM95.3965 24.1309L94.4981 24.5701L94.504 24.5822L94.5103 24.5941L95.3965 24.1309ZM95.9062 25.9238L96.8124 26.3467L96.9294 26.0961L96.9009 25.8209L95.9062 25.9238ZM94.834 27.2773L95.5335 27.9921L95.5411 27.9845L94.834 27.2773ZM88.1016 28.4902L87.3423 29.1411L87.3499 29.1498L88.1016 28.4902ZM87.5918 24.6934L88.5525 24.9709L88.8272 24.02L87.8791 23.7355L87.5918 24.6934ZM87.0645 24.5352L87.3518 23.5773L86.2758 23.2545L86.0798 24.3607L87.0645 24.5352ZM78.9961 28.6484L78.4741 29.5015L78.4835 29.5071L78.9961 28.6484ZM77.0801 26.5742L76.1996 27.0483L76.2022 27.0531L77.0801 26.5742ZM77.8008 18.9453L78.5203 19.6398L78.5243 19.6356L77.8008 18.9453ZM84.041 24.1133L83.9556 25.1096L84.0975 25.1218L84.2371 25.0939L84.041 24.1133ZM85.0781 23.6211L84.5289 22.7853L84.5178 22.7928L85.0781 23.6211ZM86.7305 21.582L87.7159 21.7519L87.7518 21.5441L87.7006 21.3395L86.7305 21.582ZM86.625 21.1602L87.5951 20.9176L87.4302 20.2578L86.7559 20.1688L86.625 21.1602ZM83.4082 21.1777L83.0201 20.2561L82.8113 20.344L82.6608 20.5134L83.4082 21.1777ZM83.127 23.6035L82.2753 24.1276L82.2825 24.1393L82.29 24.1508L83.127 23.6035ZM82.0371 18.416C82.6621 18.416 83.3671 18.4797 84.1556 18.613L84.4889 16.6409C83.6134 16.493 82.795 16.416 82.0371 16.416V18.416ZM84.1579 18.6133C84.9711 18.7489 85.7078 18.9112 86.37 19.0988L86.9152 17.1746C86.1711 16.9638 85.3609 16.7863 84.4867 16.6406L84.1579 18.6133ZM87.6426 18.1367V17.5918H85.6426V18.1367H87.6426ZM87.6426 17.5918C87.6426 17.2076 87.6302 16.7854 87.606 16.3263L85.6088 16.4315C85.6315 16.863 85.6426 17.2494 85.6426 17.5918H87.6426ZM87.6071 16.3526C87.5959 15.9282 87.5736 15.523 87.5073 15.2575L85.567 15.7425C85.5636 15.7292 85.5734 15.7696 85.5842 15.9049C85.594 16.0271 85.6022 16.1923 85.6078 16.4052L87.6071 16.3526ZM87.4209 15.0321C87.2572 14.7229 87.0003 14.5102 86.7879 14.3672C86.562 14.2151 86.2953 14.0821 86.0092 13.9623L85.2369 15.8072C85.4547 15.8984 85.5923 15.9733 85.6711 16.0264C85.7092 16.052 85.7216 16.0646 85.7187 16.0617C85.7163 16.0594 85.6858 16.0293 85.6533 15.9679L87.4209 15.0321ZM86.017 13.9656C85.3255 13.6693 84.3412 13.5684 83.1973 13.5684V15.5684C84.3033 15.5684 84.9362 15.6784 85.2291 15.8039L86.017 13.9656ZM83.1973 13.5684C82.4207 13.5684 81.628 13.6671 80.8211 13.8592L81.2844 15.8048C81.9541 15.6454 82.591 15.5684 83.1973 15.5684V13.5684ZM80.8325 13.8566C80.0729 14.0281 79.2367 14.2588 78.3258 14.5464L78.9281 16.4536C79.7984 16.1787 80.5795 15.9641 81.273 15.8075L80.8325 13.8566ZM79.4833 14.9837C79.0242 14.2221 78.6622 13.5122 78.3921 12.8532L76.5415 13.6116C76.8573 14.3823 77.2688 15.1842 77.7706 16.0163L79.4833 14.9837ZM78.3994 12.8714C78.1594 12.2516 78.0449 11.6471 78.0449 11.0527H76.0449C76.0449 11.9114 76.2117 12.7601 76.5342 13.5934L78.3994 12.8714ZM78.0449 11.0527C78.0449 10.8829 78.0583 10.7124 78.0854 10.5407L76.1099 10.2288C76.0667 10.5024 76.0449 10.7772 76.0449 11.0527H78.0449ZM77.7116 11.1741C79.3942 9.86545 81.6164 9.16992 84.4629 9.16992V7.16992C81.286 7.16992 78.598 7.95095 76.4837 9.59541L77.7116 11.1741ZM84.4629 9.16992C86.0541 9.16992 87.4336 9.34945 88.6132 9.69262L89.1719 7.77223C87.7734 7.3654 86.1999 7.16992 84.4629 7.16992V9.16992ZM88.6132 9.69262C89.6957 10.0075 90.578 10.6101 91.2826 11.5231L92.8659 10.3012C91.9064 9.05787 90.6676 8.20733 89.1719 7.77223L88.6132 9.69262ZM91.2826 11.5231C91.9303 12.3624 92.3223 13.6437 92.3223 15.5H94.3223C94.3223 13.3954 93.8822 11.6181 92.8659 10.3012L91.2826 11.5231ZM92.3223 15.5C92.3223 17.354 92.1033 19.1469 91.6669 20.881L93.6065 21.369C94.0842 19.4703 94.3223 17.5132 94.3223 15.5H92.3223ZM91.6658 20.8854C91.4432 21.7877 91.2749 22.4682 91.1608 22.9274C91.1038 23.1571 91.0605 23.3306 91.0308 23.4486C90.9918 23.6035 90.9897 23.6069 91.0025 23.5685L92.8999 24.201C92.9185 24.145 92.9493 24.0202 92.9704 23.9364C93.0008 23.8156 93.0447 23.6398 93.1019 23.4095C93.2163 22.9488 93.3849 22.267 93.6076 21.3646L91.6658 20.8854ZM92.3443 24.8042L94.8932 23.7144L94.1068 21.8754L91.558 22.9653L92.3443 24.8042ZM93.7697 23.4781C94.0308 23.7572 94.2763 24.1163 94.4981 24.5701L96.2949 23.6916C96.0011 23.0907 95.6489 22.5592 95.2303 22.1118L93.7697 23.4781ZM94.5103 24.5941C94.7119 24.9798 94.852 25.4514 94.9116 26.0267L96.9009 25.8209C96.8198 25.0369 96.6202 24.3131 96.2827 23.6676L94.5103 24.5941ZM95.0001 25.5009C94.9134 25.6867 94.6611 26.036 94.1269 26.5702L95.5411 27.9845C96.1084 27.4171 96.571 26.8641 96.8124 26.3467L95.0001 25.5009ZM94.1345 26.5627C93.6629 27.0243 93.0706 27.4506 92.3446 27.835L93.2804 29.6025C94.1481 29.1431 94.9035 28.6086 95.5334 27.992L94.1345 26.5627ZM92.3446 27.835C91.686 28.1837 91.0139 28.3516 90.3164 28.3516V30.3516C91.3533 30.3516 92.3453 30.0976 93.2804 29.6025L92.3446 27.835ZM90.3164 28.3516C89.5473 28.3516 89.1179 28.1323 88.8532 27.8306L87.3499 29.1498C88.093 29.9966 89.1402 30.3516 90.3164 30.3516V28.3516ZM88.8608 27.8394C88.5548 27.4824 88.3633 26.9852 88.3633 26.2578H86.3633C86.3633 27.3586 86.664 28.3497 87.3423 29.141L88.8608 27.8394ZM88.3633 26.2578C88.3633 25.842 88.4245 25.4138 88.5525 24.9709L86.6311 24.4158C86.4544 25.0276 86.3633 25.6424 86.3633 26.2578H88.3633ZM87.8791 23.7355L87.3518 23.5773L86.7771 25.493L87.3044 25.6512L87.8791 23.7355ZM86.0798 24.3607C85.7766 26.0715 85.1705 27.0201 84.4352 27.4888L85.5101 29.1753C86.9076 28.2846 87.696 26.702 88.0491 24.7097L86.0798 24.3607ZM84.4352 27.4888C83.5326 28.064 82.542 28.3516 81.4395 28.3516V30.3516C82.915 30.3516 84.2799 29.9594 85.5101 29.1753L84.4352 27.4888ZM81.4395 28.3516C80.7912 28.3516 80.1523 28.1741 79.5087 27.7898L78.4835 29.5071C79.4102 30.0603 80.4002 30.3516 81.4395 30.3516V28.3516ZM79.5181 27.7955C78.8991 27.4167 78.3763 26.8623 77.958 26.0954L76.2022 27.0531C76.7682 28.0908 77.5228 28.9192 78.4741 29.5014L79.5181 27.7955ZM77.9605 26.1001C77.5594 25.3552 77.3418 24.4571 77.3418 23.375H75.3418C75.3418 24.7304 75.6163 25.9651 76.1996 27.0483L77.9605 26.1001ZM77.3418 23.375C77.3418 21.5868 77.7878 20.3988 78.5203 19.6398L77.0812 18.2509C75.8685 19.5075 75.3418 21.2726 75.3418 23.375H77.3418ZM78.5243 19.6356C79.2542 18.8706 80.3691 18.416 82.0371 18.416V16.416C80.002 16.416 78.2927 16.981 77.0772 18.255L78.5243 19.6356ZM84.2371 25.0939C84.7158 24.9981 85.1891 24.7534 85.6384 24.4494L84.5178 22.7928C84.1703 23.0279 83.9522 23.1112 83.8449 23.1327L84.2371 25.0939ZM85.6273 24.4568C86.118 24.1344 86.5537 23.7478 86.9323 23.2992L85.4037 22.0094C85.1494 22.3108 84.8586 22.5688 84.5289 22.7854L85.6273 24.4568ZM86.9323 23.2992C87.3175 22.8426 87.617 22.3257 87.7159 21.7519L85.745 21.4121C85.7268 21.518 85.6513 21.716 85.4037 22.0094L86.9323 23.2992ZM87.7006 21.3395L87.5951 20.9176L85.6549 21.4027L85.7603 21.8246L87.7006 21.3395ZM86.7559 20.1688C86.0866 20.0804 85.3804 20.0371 84.6387 20.0371V22.0371C85.3032 22.0371 85.9213 22.0759 86.4941 22.1515L86.7559 20.1688ZM84.6387 20.0371C84.0484 20.0371 83.45 20.0751 83.0201 20.2561L83.7963 22.0994C83.7795 22.1064 83.829 22.0849 83.9964 22.0658C84.1512 22.0481 84.3626 22.0371 84.6387 22.0371V20.0371ZM82.6608 20.5134C82.1397 21.0996 81.8457 21.7995 81.8457 22.584H83.8457C83.8457 22.3372 83.9267 22.0997 84.1556 21.8421L82.6608 20.5134ZM81.8457 22.584C81.8457 23.1347 81.986 23.6576 82.2753 24.1276L83.9786 23.0794C83.8929 22.9401 83.8457 22.7833 83.8457 22.584H81.8457ZM82.29 24.1508C82.6809 24.7486 83.2847 25.0521 83.9556 25.1096L84.1264 23.1169C84.0373 23.1093 84.0004 23.0908 83.992 23.0861C83.9871 23.0834 83.9843 23.0812 83.9818 23.0788C83.9791 23.0763 83.9728 23.0699 83.9639 23.0563L82.29 24.1508ZM96.3105 6.00781L95.3395 6.2466L95.496 6.88322L96.1423 6.99355L96.3105 6.00781ZM95.959 4.23242L94.9663 4.35348L94.9667 4.35646L95.959 4.23242ZM95.8887 2.58008L95.0993 1.96614L94.8951 2.22867L94.8888 2.56121L95.8887 2.58008ZM97.0312 1.63086L97.5543 2.4832L97.5596 2.47992L97.0312 1.63086ZM98.8594 0.804688L98.5575 -0.148666L98.5528 -0.147173L98.8594 0.804688ZM104.572 17.1172L105.564 17.244L105.564 17.2434L104.572 17.1172ZM103.447 23.8496L102.471 23.6352L102.353 24.1697L102.74 24.5567L103.447 23.8496ZM103.482 23.8848L102.775 24.5919L103.25 25.0664L103.869 24.8071L103.482 23.8848ZM106.084 22.7949L106.736 22.0364L106.267 21.634L105.698 21.8726L106.084 22.7949ZM107.684 25.9238H108.684V25.8655L108.677 25.8075L107.684 25.9238ZM106.893 26.9434L107.636 27.6124L107.642 27.605L106.893 26.9434ZM104.801 28.5957L105.308 29.4573L105.312 29.4552L104.801 28.5957ZM99.0176 28.3848L98.3479 29.1275L98.354 29.1328L99.0176 28.3848ZM97.998 25.0801L98.9979 25.1026L98.998 25.0912L97.998 25.0801ZM98.0332 21.916L99.0332 21.9271L99.0332 21.9199L98.0332 21.916ZM98.1211 13.8125L97.1214 13.7881L97.1213 13.793L98.1211 13.8125ZM98.4727 6.37695L99.4703 6.4456L99.5324 5.54341L98.641 5.39122L98.4727 6.37695ZM97.2816 5.76902C97.1106 5.07364 97.0031 4.52345 96.9513 4.10839L94.9667 4.35646C95.032 4.8789 95.1589 5.5123 95.3395 6.2466L97.2816 5.76902ZM96.9516 4.11137C96.9 3.68816 96.8774 3.18566 96.8885 2.59894L94.8888 2.56121C94.8765 3.21669 94.9008 3.81575 94.9663 4.35348L96.9516 4.11137ZM96.678 3.19402C96.8228 3.00783 97.0942 2.76553 97.5543 2.48318L96.5082 0.778537C95.9371 1.12901 95.4467 1.51951 95.0993 1.96614L96.678 3.19402ZM97.5596 2.47992C98.0069 2.20156 98.5396 1.95825 99.1659 1.75655L98.5528 -0.147173C97.7964 0.0964367 97.1103 0.403908 96.5029 0.781803L97.5596 2.47992ZM99.1613 1.75803C99.7651 1.56682 100.39 1.4707 101.039 1.4707V-0.529297C100.188 -0.529297 99.3599 -0.402758 98.5575 -0.148655L99.1613 1.75803ZM101.039 1.4707C102.342 1.4707 103.187 1.79742 103.729 2.30664L105.099 0.849606C104.07 -0.117736 102.666 -0.529297 101.039 -0.529297V1.4707ZM103.729 2.30664C104.252 2.79842 104.592 3.58513 104.592 4.84766H106.592C106.592 3.22737 106.146 1.8344 105.099 0.849606L103.729 2.30664ZM104.592 4.84766C104.592 5.83756 104.507 7.46287 104.331 9.74557L106.325 9.89896C106.501 7.61134 106.592 5.92025 106.592 4.84766H104.592ZM104.331 9.74557C104.157 12.0122 103.907 14.4271 103.58 16.9909L105.564 17.2434C105.894 14.651 106.148 12.2027 106.325 9.89896L104.331 9.74557ZM103.58 16.9904C103.255 19.5359 102.884 21.7496 102.471 23.6352L104.424 24.064C104.854 22.1058 105.233 19.8313 105.564 17.244L103.58 16.9904ZM102.74 24.5567L102.775 24.5919L104.19 23.1777L104.154 23.1425L102.74 24.5567ZM103.869 24.8071L106.47 23.7173L105.698 21.8726L103.096 22.9624L103.869 24.8071ZM105.432 23.5535C106.139 24.1602 106.564 24.9652 106.69 26.0402L108.677 25.8075C108.498 24.2809 107.857 23 106.736 22.0364L105.432 23.5535ZM106.684 25.9238C106.684 25.8035 106.706 25.7114 106.72 25.6651C106.734 25.6141 106.75 25.5764 106.759 25.5563C106.777 25.5174 106.79 25.4973 106.786 25.5037C106.779 25.5145 106.754 25.5528 106.696 25.6272C106.583 25.7721 106.402 25.9878 106.143 26.2817L107.642 27.605C107.91 27.3012 108.125 27.0482 108.276 26.8532C108.35 26.7578 108.423 26.6583 108.482 26.5637C108.511 26.5173 108.549 26.4525 108.583 26.377C108.604 26.3299 108.684 26.1548 108.684 25.9238H106.684ZM106.149 26.2744C105.705 26.7679 105.093 27.2584 104.29 27.7362L105.312 29.4552C106.243 28.9018 107.025 28.2907 107.636 27.6123L106.149 26.2744ZM104.293 27.7341C103.61 28.1368 102.805 28.3516 101.848 28.3516V30.3516C103.117 30.3516 104.281 30.0625 105.308 29.4573L104.293 27.7341ZM101.848 28.3516C100.882 28.3516 100.191 28.0885 99.6812 27.6367L98.354 29.1328C99.2978 29.9701 100.493 30.3516 101.848 30.3516V28.3516ZM99.6872 27.6421C99.2921 27.2858 98.9652 26.547 98.9978 25.1026L96.9983 25.0575C96.9606 26.7304 97.3134 28.1946 98.3479 29.1275L99.6872 27.6421ZM98.998 25.0912L99.0331 21.9271L97.0333 21.9049L96.9981 25.069L98.998 25.0912ZM99.0332 21.9199C99.0449 18.9239 99.0742 16.2281 99.1209 13.832L97.1213 13.793C97.0743 16.2016 97.0449 18.9081 97.0332 21.9121L99.0332 21.9199ZM99.1208 13.8369C99.179 11.4502 99.2955 8.9865 99.4703 6.4456L97.475 6.30831C97.2983 8.87678 97.1804 11.3701 97.1214 13.7881L99.1208 13.8369ZM98.641 5.39122L96.4788 5.02208L96.1423 6.99355L98.3044 7.36269L98.641 5.39122ZM11.6719 54.5762L12.2186 55.4135L12.2202 55.4124L11.6719 54.5762ZM19.5117 53.3105L19.4122 54.3057L19.4256 54.3068L19.5117 53.3105ZM22.2363 53.6973L22.8098 52.878L22.6391 52.7586L22.435 52.7172L22.2363 53.6973ZM22.5879 53.9434L22.0144 54.7626L22.0206 54.7669L22.5879 53.9434ZM23.748 54.8223L23.0771 55.5638L23.0956 55.5805L23.1148 55.5962L23.748 54.8223ZM24.5566 55.7188H25.5566V55.3936L25.3654 55.1306L24.5566 55.7188ZM24.293 58.3379L23.3052 58.1819L23.3039 58.1906L24.293 58.3379ZM22.9219 63.2422L23.3798 64.1312L23.5505 64.0432L23.6765 63.8984L22.9219 63.2422ZM19.8457 63.4531L19.6557 64.4349L19.6734 64.4383L19.6913 64.4411L19.8457 63.4531ZM19.0195 63.1895L18.0259 63.3022L18.0836 63.8103L18.5293 64.061L19.0195 63.1895ZM18.6504 59.9375L19.644 59.8247L19.6085 59.5119L19.4002 59.2759L18.6504 59.9375ZM17.4375 59.4629L17.2343 60.442L17.2448 60.4442L17.2554 60.4462L17.4375 59.4629ZM15.2578 59.3047L15.0934 58.3183L14.5858 58.4029L14.3596 58.8651L15.2578 59.3047ZM15.0645 67.3203L14.1586 67.7438L14.1607 67.7484L15.0645 67.3203ZM19.5469 68.3398L19.2306 67.3911L19.2253 67.393L19.5469 68.3398ZM21.9375 67.373L22.3488 68.2846L22.3561 68.2813L22.3633 68.2779L21.9375 67.373ZM22.834 66.9688L23.5411 66.2616L23.0697 65.7902L22.4532 66.0441L22.834 66.9688ZM24.4688 70.4316L25.2294 71.0808L25.5068 70.7558L25.4636 70.3307L24.4688 70.4316ZM21.3047 73.0508L20.7669 72.2077L20.7636 72.2098L21.3047 73.0508ZM11.6367 72.9629L11.069 73.7861L11.0771 73.7917L11.6367 72.9629ZM8.54297 69.166L7.62448 69.5616L7.62805 69.5697L8.54297 69.166ZM8.50586 63.7871C8.50586 61.8719 8.82665 60.1982 9.44523 58.7478L7.60555 57.9632C6.86475 59.7002 6.50586 61.6476 6.50586 63.7871H8.50586ZM9.44523 58.7478C10.0492 57.3315 10.9703 56.2285 12.2186 55.4135L11.1252 53.7388C9.53751 54.7754 8.36094 56.1919 7.60555 57.9632L9.44523 58.7478ZM12.2202 55.4124C13.4508 54.6055 15.0294 54.1699 17.0156 54.1699V52.1699C14.7362 52.1699 12.7523 52.6719 11.1235 53.7399L12.2202 55.4124ZM17.0156 54.1699C17.7009 54.1699 18.4987 54.2142 19.4122 54.3056L19.6112 52.3155C18.6498 52.2194 17.7835 52.1699 17.0156 52.1699V54.1699ZM19.4256 54.3068C20.3399 54.3858 21.2104 54.5096 22.0377 54.6773L22.435 52.7172C21.5279 52.5333 20.582 52.3993 19.5978 52.3143L19.4256 54.3068ZM21.6629 54.5165L22.0144 54.7626L23.1614 53.1241L22.8098 52.878L21.6629 54.5165ZM22.0206 54.7669C22.5384 55.1236 22.8812 55.3866 23.0771 55.5638L24.419 54.0807C24.1227 53.8127 23.6921 53.4897 23.1552 53.1199L22.0206 54.7669ZM23.1148 55.5962C23.2846 55.7351 23.4971 55.9621 23.7479 56.3069L25.3654 55.1306C25.0537 54.702 24.7271 54.3313 24.3813 54.0483L23.1148 55.5962ZM23.5566 55.7188C23.5566 56.274 23.4781 57.087 23.3052 58.1819L25.2807 58.4939C25.4594 57.3622 25.5566 56.4291 25.5566 55.7188H23.5566ZM23.3039 58.1906C23.1448 59.2584 22.9414 60.245 22.6951 61.152L24.6252 61.6762C24.8945 60.6846 25.113 59.6205 25.2821 58.4852L23.3039 58.1906ZM22.6951 61.152C22.572 61.6051 22.4579 61.9537 22.355 62.2085C22.3038 62.3353 22.2591 62.4295 22.2224 62.4966C22.1842 62.5665 22.1641 62.5897 22.1673 62.586L23.6765 63.8984C23.9038 63.6369 24.0736 63.2938 24.2095 62.9575C24.3526 62.6029 24.4905 62.1722 24.6252 61.6762L22.6951 61.152ZM22.4639 62.3532C22.3004 62.4374 21.8771 62.541 21.041 62.541V64.541C21.9393 64.541 22.7699 64.4454 23.3798 64.1312L22.4639 62.3532ZM21.041 62.541C20.6652 62.541 20.3187 62.5149 20.0001 62.4651L19.6913 64.4411C20.1227 64.5085 20.5731 64.541 21.041 64.541V62.541ZM20.0357 62.4713C19.7135 62.409 19.56 62.3461 19.5098 62.3179L18.5293 64.061C18.8541 64.2437 19.2514 64.3567 19.6557 64.4349L20.0357 62.4713ZM20.0132 63.0767L19.644 59.8247L17.6568 60.0503L18.0259 63.3022L20.0132 63.0767ZM19.4002 59.2759C19.1607 59.0044 18.8467 58.8427 18.5797 58.7382C18.2978 58.6279 17.9715 58.5448 17.6196 58.4796L17.2554 60.4462C17.5363 60.4982 17.7286 60.5528 17.8509 60.6007C17.9882 60.6544 17.9643 60.6714 17.9006 60.5991L19.4002 59.2759ZM17.6407 58.4838C16.9658 58.3437 16.3226 58.2695 15.7148 58.2695V60.2695C16.1618 60.2695 16.6671 60.3243 17.2343 60.442L17.6407 58.4838ZM15.7148 58.2695C15.5037 58.2695 15.2958 58.2846 15.0934 58.3183L15.4222 60.2911C15.5011 60.2779 15.5978 60.2695 15.7148 60.2695V58.2695ZM14.3596 58.8651C14.0335 59.5315 13.8063 60.3365 13.6558 61.2519L15.6293 61.5763C15.7601 60.7807 15.943 60.1795 16.156 59.7442L14.3596 58.8651ZM13.6558 61.2519C13.5061 62.1624 13.4316 63.0897 13.4316 64.0332H15.4316C15.4316 63.1954 15.4978 62.3767 15.6293 61.5763L13.6558 61.2519ZM13.4316 64.0332C13.4316 65.4272 13.6593 66.6759 14.1586 67.7438L15.9703 66.8968C15.6259 66.16 15.4316 65.2173 15.4316 64.0332H13.4316ZM14.1607 67.7484C14.8027 69.1037 16.1078 69.6562 17.6484 69.6562V67.6562C16.5875 67.6562 16.1699 67.3182 15.9682 66.8922L14.1607 67.7484ZM17.6484 69.6562C18.4043 69.6562 19.1457 69.5322 19.8685 69.2867L19.2253 67.393C18.7059 67.5694 18.1816 67.6562 17.6484 67.6562V69.6562ZM19.8631 69.2885C20.5411 69.0625 21.3724 68.7251 22.3488 68.2846L21.5262 66.4615C20.5807 66.8882 19.8182 67.1953 19.2306 67.3912L19.8631 69.2885ZM22.3633 68.2779C22.7588 68.0917 23.0393 67.9657 23.2147 67.8934L22.4532 66.0441C22.2302 66.1359 21.9131 66.2794 21.5117 66.4682L22.3633 68.2779ZM22.1269 67.6759C22.5337 68.0827 22.8387 68.4944 23.0552 68.9086L24.8276 67.9821C24.5051 67.365 24.0718 66.7923 23.5411 66.2616L22.1269 67.6759ZM23.0552 68.9086C23.2474 69.2762 23.3999 69.8039 23.4739 70.5326L25.4636 70.3307C25.3735 69.4422 25.1745 68.6456 24.8276 67.9821L23.0552 68.9086ZM23.7081 69.7825C23.0421 70.5629 22.0731 71.3744 20.7669 72.2077L21.8425 73.8938C23.255 72.9928 24.3954 72.0582 25.2294 71.0808L23.7081 69.7825ZM20.7636 72.2098C19.5971 72.9605 18.2139 73.3516 16.5762 73.3516V75.3516C18.5478 75.3516 20.317 74.8755 21.8458 73.8917L20.7636 72.2098ZM16.5762 73.3516C14.8206 73.3516 13.3767 72.9311 12.1963 72.1341L11.0771 73.7917C12.639 74.8462 14.488 75.3516 16.5762 75.3516V73.3516ZM12.2045 72.1397C11.0059 71.3131 10.0906 70.1966 9.45789 68.7624L7.62805 69.5697C8.40157 71.323 9.54879 72.7377 11.069 73.7861L12.2045 72.1397ZM9.46142 68.7705C8.83052 67.3055 8.50586 65.6496 8.50586 63.7871H6.50586C6.50586 65.8856 6.87261 67.8156 7.62452 69.5616L9.46142 68.7705ZM32.8184 63.752L33.466 62.99L32.8389 62.4569L32.1952 62.9699L32.8184 63.752ZM30.1992 64.7539L29.9447 65.721L30.1047 65.7631L30.2696 65.7514L30.1992 64.7539ZM28.9512 63.8926L28.1781 64.5269L28.1829 64.5327L28.1878 64.5385L28.9512 63.8926ZM28.0547 62.2754L27.1114 62.6073L27.1133 62.6129L28.0547 62.2754ZM28.8633 57.1426V56.1426H28.5519L28.2955 56.3194L28.8633 57.1426ZM31.7461 57.9688L31.4339 58.9188L31.4444 58.9222L31.4549 58.9254L31.7461 57.9688ZM32.5547 58.2148L32.2635 59.1715L32.8574 59.3523L33.2829 58.9002L32.5547 58.2148ZM33.1172 57.6172L33.8454 58.3026L34.1625 57.9656L34.111 57.5058L33.1172 57.6172ZM31.9922 47.5801L30.9974 47.6825L30.9984 47.6915L31.9922 47.5801ZM32.3262 43.3613L31.4503 42.8787L31.4469 42.885L32.3262 43.3613ZM36.6328 41.709L36.604 40.7094L36.6034 40.7094L36.6328 41.709ZM41.5195 41.5684L42.5108 41.4362L42.3916 40.5428L41.4908 40.5688L41.5195 41.5684ZM41.6602 42.1836L42.6377 41.9728L42.6293 41.9341L42.618 41.8962L41.6602 42.1836ZM41.9414 43.6777L40.952 43.8232L40.9541 43.8374L40.9566 43.8515L41.9414 43.6777ZM42.0293 44.873L42.6769 45.635L43.0158 45.347L43.0289 44.9024L42.0293 44.873ZM38.2324 46.6484L37.9724 45.6828L37.1927 45.8928L37.2337 46.6993L38.2324 46.6484ZM38.6895 55.6309L39.6883 55.5833L39.6882 55.58L38.6895 55.6309ZM34.9102 60.4824L34.4122 59.6152L33.9102 59.9035V60.4824H34.9102ZM34.9102 60.7461H33.9102V61.3641L34.4629 61.6405L34.9102 60.7461ZM37.582 62.6797L36.8399 63.35L36.8456 63.3563L36.8514 63.3624L37.582 62.6797ZM38.584 65.4746L39.5827 65.5245L39.584 65.4996V65.4746H38.584ZM38.5664 65.8262L39.5646 65.8864L39.5652 65.8761L38.5664 65.8262ZM38.0566 74.2812L37.0585 74.2211L36.9988 75.2107L37.9878 75.2789L38.0566 74.2812ZM39.8496 74.6855L39.4532 75.6036L39.4606 75.6068L39.8496 74.6855ZM40.9922 75.4766H41.9922V75.1364L41.7848 74.8669L40.9922 75.4766ZM40.3242 79.1328V80.1328H41.011L41.2576 79.4918L40.3242 79.1328ZM33.082 78.1133L32.2521 78.6713L32.2588 78.681L33.082 78.1133ZM32.4316 74.5625L31.4341 74.4924L31.4336 74.5001L32.4316 74.5625ZM33.1699 64.0508L34.1675 64.1208L34.2029 63.6164L33.8176 63.2888L33.1699 64.0508ZM32.1952 62.9699C31.6102 63.4361 30.9319 63.6997 30.1288 63.7564L30.2696 65.7514C31.4587 65.6675 32.5266 65.2632 33.4416 64.534L32.1952 62.9699ZM30.4537 63.7868C30.259 63.7356 30.0082 63.5937 29.7146 63.2466L28.1878 64.5385C28.6676 65.1055 29.2488 65.5379 29.9447 65.721L30.4537 63.7868ZM29.7242 63.2583C29.4299 62.8995 29.1845 62.4636 28.996 61.9379L27.1133 62.6129C27.3702 63.3294 27.7225 63.9716 28.1781 64.5269L29.7242 63.2583ZM28.998 61.9435C28.8075 61.4021 28.7207 60.9051 28.7207 60.4473H26.7207C26.7207 61.1613 26.8566 61.8831 27.1114 62.6073L28.998 61.9435ZM28.7207 60.4473C28.7207 59.8458 28.8106 59.285 28.9858 58.7596L27.0884 58.1271C26.8417 58.8673 26.7207 59.6425 26.7207 60.4473H28.7207ZM28.9858 58.7596C29.1671 58.2157 29.3499 58.0217 29.431 57.9658L28.2955 56.3194C27.6969 56.7322 27.329 57.4054 27.0884 58.1271L28.9858 58.7596ZM28.8633 58.1426C28.7989 58.1426 28.8044 58.1338 28.9594 58.1692C29.0851 58.1978 29.2612 58.244 29.4931 58.3104C29.9553 58.4429 30.6005 58.6448 31.4339 58.9188L32.0583 57.0187C31.2159 56.7419 30.5427 56.5307 30.044 56.3878C29.7955 56.3166 29.5804 56.2594 29.4043 56.2193C29.2576 56.1858 29.0507 56.1426 28.8633 56.1426V58.1426ZM31.4549 58.9254L32.2635 59.1715L32.8458 57.2582L32.0373 57.0121L31.4549 58.9254ZM33.2829 58.9002L33.8454 58.3026L32.389 56.9318L31.8265 57.5295L33.2829 58.9002ZM34.111 57.5058L32.986 47.4687L30.9984 47.6915L32.1234 57.7286L34.111 57.5058ZM32.9869 47.4777C32.9059 46.6904 32.8691 46.1217 32.8691 45.752H30.8691C30.8691 46.226 30.9144 46.876 30.9974 47.6825L32.9869 47.4777ZM32.8691 45.752C32.8691 44.7959 33.0143 44.1906 33.2055 43.8376L31.4469 42.885C31.0287 43.6571 30.8691 44.6455 30.8691 45.752H32.8691ZM33.202 43.8439C33.389 43.5045 33.6839 43.2438 34.1608 43.0711L33.4799 41.1906C32.5973 41.5101 31.8961 42.0697 31.4503 42.8787L33.202 43.8439ZM34.1608 43.0711C34.6966 42.8771 35.5132 42.7423 36.6622 42.7086L36.6034 40.7094C35.3618 40.7459 34.3034 40.8924 33.4799 41.1906L34.1608 43.0711ZM36.6616 42.7086L41.5483 42.5679L41.4908 40.5688L36.604 40.7094L36.6616 42.7086ZM40.5283 41.7005C40.5608 41.9443 40.6221 42.2034 40.7023 42.4709L42.618 41.8962C42.5576 41.6951 42.5251 41.5439 42.5108 41.4362L40.5283 41.7005ZM40.6826 42.3944C40.809 42.9803 40.8979 43.4548 40.952 43.8232L42.9308 43.5322C42.8678 43.1038 42.7691 42.5822 42.6377 41.9728L40.6826 42.3944ZM40.9566 43.8515C41.0153 44.1839 41.0394 44.5143 41.0297 44.8436L43.0289 44.9024C43.0426 44.4349 43.0082 43.9684 42.9262 43.5039L40.9566 43.8515ZM41.3816 44.1111C40.9825 44.4503 40.5364 44.7367 40.0399 44.9698L40.8898 46.7802C41.5417 46.4742 42.1386 46.0926 42.6769 45.635L41.3816 44.1111ZM40.0399 44.9698C39.5378 45.2054 38.8546 45.4453 37.9724 45.6828L38.4924 47.6141C39.4384 47.3594 40.2434 47.0836 40.8898 46.7802L40.0399 44.9698ZM37.2337 46.6993L37.6907 55.6817L39.6882 55.58L39.2311 46.5976L37.2337 46.6993ZM37.6906 55.6784C37.7243 56.3862 37.5036 57.0208 36.9722 57.6243L38.4731 58.946C39.3245 57.9792 39.7484 56.8442 39.6883 55.5833L37.6906 55.6784ZM36.9722 57.6243C36.3713 58.3066 35.5282 58.9744 34.4122 59.6152L35.4081 61.3496C36.6593 60.6311 37.6912 59.834 38.4731 58.946L36.9722 57.6243ZM33.9102 60.4824V60.7461H35.9102V60.4824H33.9102ZM34.4629 61.6405C35.5068 62.1625 36.2872 62.738 36.8399 63.35L38.3241 62.0094C37.5644 61.1682 36.5635 60.4547 35.3574 59.8517L34.4629 61.6405ZM36.8514 63.3624C37.3166 63.8604 37.584 64.5327 37.584 65.4746H39.584C39.584 64.1197 39.1834 62.9287 38.3127 61.9969L36.8514 63.3624ZM37.5852 65.4247L37.5677 65.7762L39.5652 65.8761L39.5827 65.5245L37.5852 65.4247ZM37.5682 65.766L37.0585 74.2211L39.0548 74.3414L39.5646 65.8864L37.5682 65.766ZM37.9878 75.2789C38.5779 75.3196 39.0609 75.4342 39.4532 75.6036L40.246 73.7675C39.607 73.4916 38.8948 73.3367 38.1254 73.2836L37.9878 75.2789ZM39.4606 75.6068C39.901 75.7927 40.1098 75.9696 40.1996 76.0863L41.7848 74.8669C41.4058 74.3742 40.853 74.0237 40.2386 73.7643L39.4606 75.6068ZM39.9922 75.4766C39.9922 76.1837 39.9421 76.7605 39.8526 77.2181L41.8154 77.6022C41.9368 76.9817 41.9922 76.2694 41.9922 75.4766H39.9922ZM39.8526 77.2181C39.7601 77.6908 39.6082 78.2088 39.3909 78.7738L41.2576 79.4918C41.509 78.8381 41.6969 78.2076 41.8154 77.6022L39.8526 77.2181ZM40.3242 78.1328H35.5957V80.1328H40.3242V78.1328ZM35.5957 78.1328C34.556 78.1328 34.1114 77.8444 33.9052 77.5455L32.2588 78.681C32.9902 79.7415 34.2214 80.1328 35.5957 80.1328V78.1328ZM33.9119 77.5553C33.6001 77.0916 33.3965 76.4045 33.3965 75.4062H31.3965C31.3965 76.658 31.6499 77.7755 32.2522 78.6713L33.9119 77.5553ZM33.3965 75.4062C33.3965 75.2511 33.4065 74.9953 33.4297 74.6249L31.4336 74.5001C31.4099 74.8797 31.3965 75.1864 31.3965 75.4062H33.3965ZM33.4292 74.6326L34.1675 64.1208L32.1724 63.9807L31.4341 74.4924L33.4292 74.6326ZM33.8176 63.2888L33.466 62.99L32.1707 64.5139L32.5223 64.8127L33.8176 63.2888ZM52.3652 74.5625L53.3633 74.5001L53.3628 74.4924L52.3652 74.5625ZM51.6973 78.1133L50.874 77.5455L50.8674 77.5553L51.6973 78.1133ZM44.4727 79.1328L43.5393 79.4918L43.7859 80.1328H44.4727V79.1328ZM43.8047 75.4766L43.0121 74.8669L42.8047 75.1364V75.4766H43.8047ZM44.9297 74.6855L44.5407 73.7643L44.5333 73.7675L44.9297 74.6855ZM46.7402 74.2812L46.809 75.2789L47.7981 75.2107L47.7384 74.2211L46.7402 74.2812ZM46.2305 65.8262L47.2287 65.766L47.2283 65.7609L46.2305 65.8262ZM47.1094 62.7852L47.8662 63.4388L47.871 63.4331L47.1094 62.7852ZM49.8867 60.7461L50.3232 61.6458L50.8867 61.3724V60.7461H49.8867ZM49.8867 60.4824H50.8867V59.9035L50.3847 59.6152L49.8867 60.4824ZM46.1074 55.6309L45.1087 55.58L45.1086 55.5833L46.1074 55.6309ZM46.5645 46.6484L47.5632 46.6993L47.6042 45.8928L46.8244 45.6828L46.5645 46.6484ZM42.7676 44.873L41.768 44.9024L41.7811 45.347L42.1199 45.635L42.7676 44.873ZM42.8379 43.6777L41.8531 43.5039L41.8506 43.5181L41.8485 43.5322L42.8379 43.6777ZM43.1367 42.1836L42.1789 41.8962L42.1675 41.9341L42.1592 41.9728L43.1367 42.1836ZM43.2773 41.5684L43.3061 40.5688L42.4052 40.5428L42.2861 41.4362L43.2773 41.5684ZM48.1641 41.709L48.1935 40.7094L48.1928 40.7094L48.1641 41.709ZM52.4531 43.3613L51.5698 43.83L51.5755 43.8409L51.5815 43.8516L52.4531 43.3613ZM52.8047 47.5801L53.7985 47.6915L53.7994 47.6825L52.8047 47.5801ZM51.6797 57.6172L50.6859 57.5058L50.6344 57.9656L50.9515 58.3026L51.6797 57.6172ZM52.2422 58.2148L51.514 58.9002L51.9395 59.3523L52.5333 59.1715L52.2422 58.2148ZM53.0508 57.9688L53.3419 58.9254L53.3525 58.9222L53.363 58.9188L53.0508 57.9688ZM55.9336 57.1426L56.5013 56.3194L56.245 56.1426H55.9336V57.1426ZM56.7422 62.2754L57.6835 62.6129L57.6855 62.6073L56.7422 62.2754ZM55.8281 63.8926L55.0647 63.2466L55.0599 63.2524L55.0551 63.2583L55.8281 63.8926ZM54.5977 64.7539L54.5272 65.7514L54.6922 65.7631L54.8521 65.721L54.5977 64.7539ZM51.9785 63.752L52.6017 62.9699L51.958 62.4569L51.3309 62.99L51.9785 63.752ZM51.627 64.0508L50.9793 63.2888L50.594 63.6164L50.6294 64.1208L51.627 64.0508ZM51.3672 74.6249C51.3903 74.9953 51.4004 75.2511 51.4004 75.4062H53.4004C53.4004 75.1864 53.387 74.8797 53.3633 74.5001L51.3672 74.6249ZM51.4004 75.4062C51.4004 76.4002 51.1927 77.0835 50.8741 77.5455L52.5205 78.681C53.1393 77.7837 53.4004 76.6623 53.4004 75.4062H51.4004ZM50.8674 77.5553C50.6735 77.8436 50.2432 78.1328 49.2012 78.1328V80.1328C50.5732 80.1328 51.8069 79.7423 52.5271 78.6713L50.8674 77.5553ZM49.2012 78.1328H44.4727V80.1328H49.2012V78.1328ZM45.406 78.7738C45.1887 78.2088 45.0368 77.6908 44.9443 77.2181L42.9815 77.6022C43.1 78.2076 43.2879 78.8381 43.5393 79.4918L45.406 78.7738ZM44.9443 77.2181C44.8547 76.7605 44.8047 76.1837 44.8047 75.4766H42.8047C42.8047 76.2694 42.8601 76.9817 42.9815 77.6022L44.9443 77.2181ZM44.5973 76.0863C44.6911 75.9644 44.8995 75.7878 45.3261 75.6036L44.5333 73.7675C43.9286 74.0286 43.3871 74.3793 43.0121 74.8669L44.5973 76.0863ZM45.3187 75.6068C45.727 75.4344 46.2192 75.3196 46.809 75.2789L46.6714 73.2836C45.9019 73.3367 45.1871 73.4914 44.5407 73.7643L45.3187 75.6068ZM47.7384 74.2211L47.2287 65.766L45.2323 65.8864L45.742 74.3414L47.7384 74.2211ZM47.2283 65.7609C47.1593 64.7052 47.4075 63.9699 47.8662 63.4388L46.3526 62.1315C45.4753 63.1473 45.1376 64.4393 45.2326 65.8915L47.2283 65.7609ZM47.871 63.4331C48.4281 62.7783 49.2311 62.1756 50.3232 61.6458L49.4502 59.8464C48.1751 60.465 47.1266 61.2217 46.3477 62.1372L47.871 63.4331ZM50.8867 60.7461V60.4824H48.8867V60.7461H50.8867ZM50.3847 59.6152C49.2687 58.9744 48.4256 58.3066 47.8247 57.6243L46.3237 58.946C47.1057 59.834 48.1375 60.6311 49.3887 61.3496L50.3847 59.6152ZM47.8247 57.6243C47.2933 57.0208 47.0726 56.3862 47.1063 55.6784L45.1086 55.5833C45.0485 56.8442 45.4723 57.9792 46.3237 58.946L47.8247 57.6243ZM47.1061 55.6817L47.5632 46.6993L45.5657 46.5976L45.1087 55.58L47.1061 55.6817ZM46.8244 45.6828C45.9423 45.4453 45.259 45.2054 44.7569 44.9698L43.9071 46.7802C44.5535 47.0836 45.3585 47.3594 46.3045 47.6141L46.8244 45.6828ZM44.7569 44.9698C44.2605 44.7367 43.8143 44.4503 43.4152 44.1111L42.1199 45.635C42.6583 46.0926 43.2551 46.4742 43.9071 46.7802L44.7569 44.9698ZM43.7671 44.8436C43.7572 44.5043 43.7771 44.1644 43.8272 43.8232L41.8485 43.5322C41.7815 43.988 41.7546 44.4449 41.768 44.9024L43.7671 44.8436ZM43.8227 43.8515C43.89 43.47 43.9868 42.9853 44.1142 42.3944L42.1592 41.9728C42.0288 42.5772 41.9264 43.0886 41.8531 43.5039L43.8227 43.8515ZM44.0945 42.4709C44.1748 42.2034 44.2361 41.9443 44.2686 41.7005L42.2861 41.4362C42.2717 41.5439 42.2393 41.6951 42.1789 41.8962L44.0945 42.4709ZM43.2486 42.5679L48.1353 42.7086L48.1928 40.7094L43.3061 40.5688L43.2486 42.5679ZM48.1347 42.7086C49.2837 42.7423 50.1003 42.8771 50.6361 43.0711L51.317 41.1906C50.4935 40.8924 49.4351 40.7459 48.1935 40.7094L48.1347 42.7086ZM50.6361 43.0711C51.1108 43.243 51.3946 43.5 51.5698 43.83L53.3365 42.8926C52.9022 42.0742 52.2017 41.5109 51.317 41.1906L50.6361 43.0711ZM51.5815 43.8516C51.7778 44.2004 51.9277 44.8 51.9277 45.752H53.9277C53.9277 44.6414 53.7613 43.6472 53.3247 42.8711L51.5815 43.8516ZM51.9277 45.752C51.9277 46.1217 51.891 46.6904 51.8099 47.4777L53.7994 47.6825C53.8825 46.876 53.9277 46.226 53.9277 45.752H51.9277ZM51.8109 47.4687L50.6859 57.5058L52.6735 57.7286L53.7985 47.6915L51.8109 47.4687ZM50.9515 58.3026L51.514 58.9002L52.9704 57.5295L52.4079 56.9318L50.9515 58.3026ZM52.5333 59.1715L53.3419 58.9254L52.7596 57.0121L51.951 57.2582L52.5333 59.1715ZM53.363 58.9188C54.1964 58.6448 54.8415 58.4429 55.3038 58.3104C55.5357 58.244 55.7118 58.1978 55.8374 58.1692C55.9924 58.1338 55.998 58.1426 55.9336 58.1426V56.1426C55.7462 56.1426 55.5393 56.1858 55.3926 56.2193C55.2165 56.2594 55.0014 56.3166 54.7528 56.3878C54.2542 56.5307 53.5809 56.7419 52.7385 57.0187L53.363 58.9188ZM55.3659 57.9658C55.4469 58.0217 55.6298 58.2157 55.8111 58.7596L57.7084 58.1271C57.4679 57.4054 57.0999 56.7322 56.5013 56.3194L55.3659 57.9658ZM55.8111 58.7596C55.9862 59.285 56.0762 59.8458 56.0762 60.4473H58.0762C58.0762 59.6425 57.9552 58.8673 57.7084 58.1271L55.8111 58.7596ZM56.0762 60.4473C56.0762 60.9051 55.9894 61.4021 55.7989 61.9435L57.6855 62.6073C57.9403 61.8831 58.0762 61.1613 58.0762 60.4473H56.0762ZM55.8008 61.9379C55.6145 62.4579 55.3667 62.8898 55.0647 63.2466L56.5915 64.5385C57.063 63.9813 57.4246 63.3351 57.6835 62.6129L55.8008 61.9379ZM55.0551 63.2583C54.7756 63.5988 54.5338 63.7367 54.3432 63.7868L54.8521 65.721C55.5522 65.5368 56.1306 65.1004 56.6012 64.5269L55.0551 63.2583ZM54.6681 63.7564C53.865 63.6997 53.1867 63.4361 52.6017 62.9699L51.3553 64.534C52.2703 65.2632 53.3382 65.6675 54.5272 65.7514L54.6681 63.7564ZM51.3309 62.99L50.9793 63.2888L52.2746 64.8127L52.6262 64.5139L51.3309 62.99ZM50.6294 64.1208L51.3677 74.6326L53.3628 74.4924L52.6245 63.9807L50.6294 64.1208ZM61.3125 58.7422L60.3571 58.4466L60.3552 58.4529L61.3125 58.7422ZM63.668 54.7344L62.9727 54.0156L62.9688 54.0195L63.668 54.7344ZM72.9668 54.9102L72.3949 55.7305L72.9367 56.1082L73.4968 55.7582L72.9668 54.9102ZM73.248 54.7344L73.778 55.5824L74.2624 55.2797L74.2477 54.7087L73.248 54.7344ZM72.7383 51.0078L73.7028 50.7438L73.5144 50.0555L72.8022 50.0099L72.7383 51.0078ZM69.1699 50.7793L68.3806 51.3932L68.6569 51.7485L69.106 51.7773L69.1699 50.7793ZM68.7832 49.8477L67.807 50.0646L67.8083 50.0705L68.7832 49.8477ZM68.8535 47L68.271 46.1872L68.0037 46.3787L67.9023 46.6915L68.8535 47ZM77.625 46.2441L76.9862 47.0136L76.995 47.0207L77.625 46.2441ZM78.873 48.5469L77.8932 48.7473L77.8961 48.7602L78.873 48.5469ZM78.1348 68.375L79.1082 68.604L79.116 68.571L79.1215 68.5374L78.1348 68.375ZM78.0645 68.6738L77.091 68.4448L76.6361 70.3785L78.4603 69.5922L78.0645 68.6738ZM80.1035 67.7949L80.8338 67.1118L80.3534 66.5983L79.7077 66.8766L80.1035 67.7949ZM81 69.1309L80.1016 69.5701L80.1075 69.5822L80.1138 69.5941L81 69.1309ZM81.5098 70.9238L82.4159 71.3467L82.5329 71.0961L82.5045 70.8209L81.5098 70.9238ZM80.4375 72.2773L81.137 72.9921L81.1446 72.9845L80.4375 72.2773ZM73.6699 73.4902L72.9192 74.1509L72.9262 74.1588L72.9334 74.1666L73.6699 73.4902ZM73.0723 69.8164L72.0876 69.6417L72.0863 69.6494L72.085 69.6572L73.0723 69.8164ZM73.3887 68.3047L74.3487 68.5847L74.6265 67.632L73.676 67.3469L73.3887 68.3047ZM72.8613 68.1465L73.1487 67.1887L72.1774 66.8973L71.8996 67.8725L72.8613 68.1465ZM63.0879 72.8047L62.34 73.4686L62.348 73.4774L63.0879 72.8047ZM72.6328 63.541L73.549 63.9418L73.5988 63.828L73.6192 63.7054L72.6328 63.541ZM72.6855 61.0273L71.6881 61.0986L71.6894 61.1163L71.6912 61.1339L72.6855 61.0273ZM72.5977 60.3242L73.5678 60.0817L73.4795 59.7284L73.1846 59.5146L72.5977 60.3242ZM70.998 59.6035L70.7647 60.5759L70.769 60.5769L70.998 59.6035ZM68.3965 59.4805L68.2321 58.4941L67.916 58.5468L67.6894 58.7734L68.3965 59.4805ZM67.834 61.0098L68.8179 61.1887L68.8183 61.1861L67.834 61.0098ZM67.834 66.6699L66.8439 66.8114L66.846 66.8247L67.834 66.6699ZM68.4668 68.9551L67.5686 69.3946L67.8428 69.9551H68.4668V68.9551ZM69.5566 68.0938L68.828 67.4088L68.8276 67.4093L69.5566 68.0938ZM71.2617 65.9492L72.0831 66.5196L72.0867 66.5143L71.2617 65.9492ZM61.5742 63.8574C61.5742 62.1696 61.8072 60.5622 62.2698 59.0314L60.3552 58.4529C59.8334 60.18 59.5742 61.9828 59.5742 63.8574H61.5742ZM62.2678 59.0377C62.7297 57.5448 63.4358 56.3602 64.3672 55.4493L62.9688 54.0195C61.7673 55.1945 60.9031 56.6818 60.3572 58.4467L62.2678 59.0377ZM64.3633 55.4531C65.238 54.6069 66.3346 54.1699 67.7285 54.1699V52.1699C65.8646 52.1699 64.2542 52.7759 62.9727 54.0156L64.3633 55.4531ZM67.7285 54.1699C69.3299 54.1699 70.8794 54.6739 72.3949 55.7305L73.5387 54.0898C71.7261 52.8261 69.7834 52.1699 67.7285 52.1699V54.1699ZM73.4968 55.7582L73.778 55.5824L72.718 53.8864L72.4368 54.0622L73.4968 55.7582ZM74.2477 54.7087C74.2109 53.2717 74.0323 51.9478 73.7028 50.7438L71.7738 51.2718C72.0536 52.2944 72.2149 53.4549 72.2484 54.76L74.2477 54.7087ZM72.8022 50.0099L69.2338 49.7813L69.106 51.7773L72.6744 52.0058L72.8022 50.0099ZM69.9593 50.1654C69.9217 50.117 69.836 49.9657 69.7581 49.6248L67.8083 50.0705C67.9179 50.5499 68.0901 51.0197 68.3806 51.3932L69.9593 50.1654ZM69.7594 49.6307C69.6819 49.2822 69.6426 48.9214 69.6426 48.5469H67.6426C67.6426 49.0629 67.697 49.5693 67.807 50.0646L69.7594 49.6307ZM69.6426 48.5469C69.6426 48.0233 69.7047 47.617 69.8047 47.3085L67.9023 46.6915C67.7211 47.2502 67.6426 47.8751 67.6426 48.5469H69.6426ZM69.436 47.8128C70.0053 47.4048 70.7771 47.0678 71.7884 46.8311L71.3327 44.8837C70.1409 45.1627 69.1079 45.5874 68.271 46.1872L69.436 47.8128ZM71.7884 46.8311C72.8173 46.5903 73.8424 46.4707 74.8652 46.4707V44.4707C73.6849 44.4707 72.5069 44.6089 71.3327 44.8837L71.7884 46.8311ZM74.8652 46.4707C75.9649 46.4707 76.6163 46.7064 76.9862 47.0136L78.2638 45.4747C77.3915 44.7506 76.2031 44.4707 74.8652 44.4707V46.4707ZM76.995 47.0207C77.3863 47.3382 77.714 47.8704 77.8933 48.7473L79.8528 48.3465C79.6102 47.1608 79.1058 46.1579 78.255 45.4676L76.995 47.0207ZM77.8961 48.7602C78.0962 49.6766 78.207 51.0117 78.207 52.8008H80.207C80.207 50.957 80.0952 49.4562 79.85 48.3335L77.8961 48.7602ZM78.207 52.8008C78.207 55.1646 78.1085 57.8551 77.9104 60.874L79.9061 61.0049C80.1063 57.9535 80.207 55.2182 80.207 52.8008H78.207ZM77.9104 60.874C77.7122 63.8925 77.4571 66.3354 77.148 68.2126L79.1215 68.5374C79.4452 66.5709 79.7057 64.0568 79.9061 61.0049L77.9104 60.874ZM77.1613 68.146L77.091 68.4448L79.0379 68.9029L79.1082 68.604L77.1613 68.146ZM78.4603 69.5922L80.4993 68.7132L79.7077 66.8766L77.6686 67.7555L78.4603 69.5922ZM79.3732 68.4781C79.6343 68.7572 79.8798 69.1163 80.1016 69.5701L81.8984 68.6916C81.6046 68.0907 81.2524 67.5592 80.8338 67.1118L79.3732 68.4781ZM80.1138 69.5941C80.3154 69.9798 80.4556 70.4514 80.5151 71.0267L82.5045 70.8209C82.4234 70.0369 82.2237 69.3131 81.8862 68.6676L80.1138 69.5941ZM80.6036 70.5009C80.5169 70.6867 80.2646 71.036 79.7304 71.5702L81.1446 72.9845C81.712 72.4171 82.1745 71.8641 82.4159 71.3467L80.6036 70.5009ZM79.738 71.5627C79.2664 72.0243 78.6741 72.4506 77.9481 72.835L78.8839 74.6025C79.7517 74.1431 80.507 73.6086 81.137 72.992L79.738 71.5627ZM77.9481 72.835C77.2895 73.1837 76.6174 73.3516 75.9199 73.3516V75.3516C76.9568 75.3516 77.9488 75.0976 78.8839 74.6025L77.9481 72.835ZM75.9199 73.3516C75.153 73.3516 74.6994 73.1328 74.4065 72.8138L72.9334 74.1666C73.6951 74.9961 74.7416 75.3516 75.9199 75.3516V73.3516ZM74.4206 72.8296C74.0905 72.4544 73.8965 71.9573 73.8965 71.2578H71.8965C71.8965 72.363 72.2181 73.3542 72.9192 74.1509L74.4206 72.8296ZM73.8965 71.2578C73.8965 71.1178 73.9397 70.7183 74.0595 69.9756L72.085 69.6572C71.9704 70.3676 71.8965 70.9291 71.8965 71.2578H73.8965ZM74.0569 69.9911C74.1861 69.2627 74.2836 68.8078 74.3487 68.5847L72.4287 68.0247C72.3297 68.3641 72.2162 68.917 72.0876 69.6417L74.0569 69.9911ZM73.676 67.3469L73.1487 67.1887L72.574 69.1043L73.1013 69.2625L73.676 67.3469ZM71.8996 67.8725C71.3249 69.8897 70.5939 71.2732 69.7689 72.1277L71.2077 73.5169C72.3514 72.3323 73.2025 70.5986 73.8231 68.4205L71.8996 67.8725ZM69.7689 72.1277C68.9783 72.9465 68.0216 73.3516 66.832 73.3516V75.3516C68.5487 75.3516 70.0296 74.7371 71.2077 73.5169L69.7689 72.1277ZM66.832 73.3516C65.5182 73.3516 64.5523 72.9289 63.8278 72.132L62.348 73.4774C63.4985 74.743 65.0287 75.3516 66.832 75.3516V73.3516ZM63.8358 72.1408C63.0354 71.2392 62.4522 70.088 62.1094 68.6525L60.1641 69.117C60.5713 70.8221 61.2888 72.2843 62.34 73.4685L63.8358 72.1408ZM62.1094 68.6525C61.7543 67.1656 61.5742 65.5684 61.5742 63.8574H59.5742C59.5742 65.7089 59.7691 67.4633 60.1641 69.117L62.1094 68.6525ZM73.6192 63.7054C73.7009 63.2154 73.7383 62.6659 73.7383 62.0645H71.7383C71.7383 62.588 71.7054 63.0229 71.6464 63.3766L73.6192 63.7054ZM73.7383 62.0645C73.7383 61.6691 73.7192 61.2876 73.6799 60.9208L71.6912 61.1339C71.7222 61.4233 71.7383 61.7333 71.7383 62.0645H73.7383ZM73.683 60.9561C73.6593 60.624 73.6258 60.3139 73.5678 60.0817L71.6275 60.5668C71.6398 60.6158 71.6649 60.7744 71.6881 61.0986L73.683 60.9561ZM73.1846 59.5146C72.6022 59.0924 71.9458 58.7992 71.2271 58.6301L70.769 60.5769C71.2456 60.6891 71.6556 60.8764 72.0107 61.1338L73.1846 59.5146ZM71.2314 58.6311C70.5854 58.4761 69.9669 58.3926 69.3809 58.3926V60.3926C69.7792 60.3926 70.2388 60.4497 70.7647 60.5759L71.2314 58.6311ZM69.3809 58.3926C69.0128 58.3926 68.6291 58.4279 68.2321 58.4941L68.5609 60.4669C68.867 60.4158 69.1396 60.3926 69.3809 60.3926V58.3926ZM67.6894 58.7734C67.4246 59.0381 67.2572 59.3789 67.1416 59.6934C67.0207 60.0221 66.926 60.4074 66.8496 60.8335L68.8183 61.1861C68.8826 60.827 68.952 60.5649 69.0186 60.3838C69.0904 60.1885 69.134 60.1572 69.1036 60.1876L67.6894 58.7734ZM66.8501 60.8309C66.6966 61.6753 66.623 62.6097 66.623 63.6289H68.623C68.623 62.7028 68.6901 61.8911 68.8179 61.1887L66.8501 60.8309ZM66.623 63.6289C66.623 64.7169 66.6964 65.7779 66.844 66.8113L68.8239 66.5285C68.6903 65.5932 68.623 64.6268 68.623 63.6289H66.623ZM66.846 66.8247C67.0057 67.8441 67.2367 68.7164 67.5686 69.3946L69.365 68.5155C69.1579 68.0922 68.967 67.4411 68.8219 66.5152L66.846 66.8247ZM68.4668 69.9551C68.7473 69.9551 68.9737 69.8552 69.1026 69.788C69.2471 69.7127 69.3813 69.6181 69.4999 69.5243C69.7379 69.3362 70.0023 69.0801 70.2857 68.7782L68.8276 67.4093C68.5719 67.6816 68.3851 67.8562 68.2598 67.9552C68.1968 68.005 68.1714 68.018 68.1781 68.0145C68.1829 68.012 68.2074 67.9994 68.2491 67.9865C68.2897 67.9739 68.3654 67.9551 68.4668 67.9551V69.9551ZM70.2853 68.7787C70.8775 68.1487 71.4764 67.3933 72.0831 66.5196L70.4403 65.3788C69.8752 66.1927 69.3374 66.867 68.828 67.4088L70.2853 68.7787ZM72.0867 66.5143C72.6993 65.62 73.1901 64.7621 73.549 63.9418L71.7167 63.1402C71.4193 63.8199 70.9961 64.5675 70.4367 65.3841L72.0867 66.5143ZM86.8711 54.5762L87.4178 55.4135L87.4195 55.4124L86.8711 54.5762ZM95.5547 53.5742L95.3194 54.5462L95.3291 54.5484L95.5547 53.5742ZM98.3848 54.875L99.011 54.0953L99.0036 54.0895L98.3848 54.875ZM99.9316 57.1602L98.983 57.4764L98.9853 57.4835L98.9878 57.4905L99.9316 57.1602ZM100.23 62.627L101.088 63.1414L101.187 62.9765L101.218 62.7866L100.23 62.627ZM99.4043 63.5586L100.079 64.2966L100.085 64.2914L100.09 64.2862L99.4043 63.5586ZM96.3633 65.5098L96.4345 66.5072L96.5839 66.4966L96.7237 66.4426L96.3633 65.5098ZM89.5254 65.1582L89.6714 64.1689L88.4104 63.9829L88.5298 65.2519L89.5254 65.1582ZM93.4102 68.832L93.3123 67.8368L93.3107 67.837L93.4102 68.832ZM95.9062 68.2695L96.2119 69.2217L96.219 69.2194L95.9062 68.2695ZM98.7715 67.1797L99.4786 66.4726L98.9983 65.9923L98.3748 66.2617L98.7715 67.1797ZM100.195 70.4316L100.953 71.0842L101.233 70.7597L101.19 70.3335L100.195 70.4316ZM98.4199 71.9785L97.8236 71.1758L97.8181 71.1799L98.4199 71.9785ZM95.4492 73.6309L95.8286 74.5561L95.8365 74.5528L95.4492 73.6309ZM86.8359 72.9629L86.2682 73.7861L86.2763 73.7917L86.8359 72.9629ZM83.7422 69.166L82.8237 69.5616L82.8273 69.5697L83.7422 69.166ZM94.0254 59.7441L95.0174 59.6179L94.9766 59.2977L94.7564 59.0618L94.0254 59.7441ZM93.1992 59.3398L92.9361 60.3046L92.9498 60.3083L92.9636 60.3117L93.1992 59.3398ZM90.9492 59.2695L90.7848 58.2831L90.7793 58.2841L90.9492 59.2695ZM90.334 59.4629L89.6269 58.7558L89.5143 58.8684L89.4422 59.0104L90.334 59.4629ZM89.5781 62.1348L88.5837 62.0295L88.4546 63.2489L89.675 63.1301L89.5781 62.1348ZM94.2715 61.6777L94.3684 62.673L95.3935 62.5732L95.2635 61.5515L94.2715 61.6777ZM83.7051 63.7871C83.7051 61.8719 84.0259 60.1982 84.6445 58.7478L82.8048 57.9632C82.064 59.7002 81.7051 61.6476 81.7051 63.7871H83.7051ZM84.6445 58.7478C85.2484 57.3315 86.1695 56.2285 87.4178 55.4135L86.3244 53.7388C84.7367 54.7754 83.5602 56.1919 82.8048 57.9632L84.6445 58.7478ZM87.4195 55.4124C88.6501 54.6055 90.2286 54.1699 92.2148 54.1699V52.1699C89.9355 52.1699 87.9515 52.6719 86.3227 53.7399L87.4195 55.4124ZM92.2148 54.1699C93.2466 54.1699 94.2809 54.2947 95.3194 54.5461L95.79 52.6023C94.6019 52.3147 93.4097 52.1699 92.2148 52.1699V54.1699ZM95.3291 54.5484C96.3219 54.7784 97.1252 55.1557 97.7659 55.6605L99.0036 54.0895C98.0974 53.3755 97.014 52.8857 95.7803 52.6L95.3291 54.5484ZM97.7585 55.6546C98.31 56.0976 98.7215 56.6921 98.983 57.4764L100.88 56.8439C100.509 55.7298 99.8892 54.8008 99.011 54.0954L97.7585 55.6546ZM98.9878 57.4905C99.2734 58.3067 99.4238 59.2359 99.4238 60.2891H101.424C101.424 59.0454 101.246 57.8886 100.875 56.8298L98.9878 57.4905ZM99.4238 60.2891C99.4238 60.9942 99.3642 61.7201 99.2433 62.4673L101.218 62.7866C101.355 61.9401 101.424 61.1073 101.424 60.2891H99.4238ZM99.373 62.1125C99.3069 62.2226 99.1168 62.4553 98.7183 62.831L100.09 64.2862C100.512 63.8885 100.873 63.5 101.088 63.1414L99.373 62.1125ZM98.7295 62.8206C98.3645 63.1543 97.9271 63.4917 97.4123 63.8312L98.5135 65.5008C99.1003 65.1138 99.6237 64.7129 100.079 64.2966L98.7295 62.8206ZM97.4123 63.8312C96.9101 64.1625 96.4404 64.4079 96.0029 64.577L96.7237 66.4426C97.3174 66.2132 97.9141 65.8961 98.5135 65.5008L97.4123 63.8312ZM96.292 64.5123C95.8251 64.5457 95.3392 64.5625 94.834 64.5625V66.5625C95.3835 66.5625 95.9171 66.5442 96.4345 66.5072L96.292 64.5123ZM94.834 64.5625C93.9378 64.5625 93.029 64.5228 92.1076 64.4432L91.9354 66.4357C92.9124 66.5202 93.8786 66.5625 94.834 66.5625V64.5625ZM92.1076 64.4432C91.1725 64.3624 90.3612 64.2707 89.6714 64.1689L89.3794 66.1475C90.1192 66.2566 90.972 66.3525 91.9354 66.4357L92.1076 64.4432ZM88.5298 65.2519C88.6379 66.4006 88.9943 67.4371 89.6196 68.3324L91.2593 67.1872C90.8533 66.6059 90.6004 65.908 90.521 65.0645L88.5298 65.2519ZM89.6196 68.3324C90.3692 69.4056 91.5402 69.8672 92.9004 69.8672V67.8672C92.0105 67.8672 91.5409 67.5905 91.2593 67.1872L89.6196 68.3324ZM92.9004 69.8672C93.0596 69.8672 93.2723 69.8508 93.5097 69.8271L93.3107 67.837C93.0793 67.8601 92.9521 67.8672 92.9004 67.8672V69.8672ZM93.508 69.8272C94.3147 69.7479 95.2191 69.5404 96.2119 69.2217L95.6006 67.3174C94.695 67.6081 93.9353 67.7756 93.3123 67.8368L93.508 69.8272ZM96.219 69.2194C97.209 68.8934 98.192 68.5194 99.1681 68.0977L98.3748 66.2617C97.4525 66.6603 96.5254 67.0129 95.5935 67.3197L96.219 69.2194ZM98.0644 67.8868C98.4501 68.2725 98.7018 68.6263 98.8521 68.9437L100.66 68.0875C100.388 67.5144 99.9835 66.9775 99.4786 66.4726L98.0644 67.8868ZM98.8521 68.9437C98.9912 69.2373 99.1227 69.744 99.2001 70.5298L101.19 70.3335C101.104 69.4553 100.942 68.6845 100.66 68.0875L98.8521 68.9437ZM99.4375 69.7791C99.1468 70.1168 98.6251 70.5804 97.8236 71.1758L99.0162 72.7813C99.8554 72.1579 100.517 71.5902 100.953 71.0842L99.4375 69.7791ZM97.8181 71.1799C97.0899 71.7287 96.176 72.241 95.062 72.7089L95.8365 74.5528C97.0662 74.0363 98.1327 73.4471 99.0218 72.7771L97.8181 71.1799ZM95.0699 72.7056C94.0194 73.1363 92.9238 73.3516 91.7754 73.3516V75.3516C93.1817 75.3516 94.5353 75.0864 95.8286 74.5561L95.0699 72.7056ZM91.7754 73.3516C90.0199 73.3516 88.5759 72.9311 87.3955 72.1341L86.2763 73.7917C87.8382 74.8462 89.6872 75.3516 91.7754 75.3516V73.3516ZM87.4037 72.1397C86.2051 71.3131 85.2898 70.1966 84.6571 68.7624L82.8273 69.5697C83.6008 71.323 84.748 72.7377 86.2682 73.7861L87.4037 72.1397ZM84.6606 68.7705C84.0297 67.3055 83.7051 65.6496 83.7051 63.7871H81.7051C81.7051 65.8856 82.0718 67.8156 82.8237 69.5616L84.6606 68.7705ZM94.7564 59.0618C94.3977 58.6775 93.8995 58.4806 93.4348 58.368L92.9636 60.3117C93.1061 60.3462 93.1996 60.3817 93.2562 60.4094C93.3132 60.4373 93.3149 60.4485 93.2943 60.4265L94.7564 59.0618ZM93.4623 58.3751C92.9855 58.245 92.4924 58.1816 91.9863 58.1816V60.1816C92.324 60.1816 92.6395 60.2237 92.9361 60.3046L93.4623 58.3751ZM91.9863 58.1816C91.5888 58.1816 91.1881 58.2159 90.7848 58.2831L91.1136 60.2559C91.4135 60.2059 91.7042 60.1816 91.9863 60.1816V58.1816ZM90.7793 58.2841C90.5883 58.317 90.4033 58.3567 90.2407 58.4078C90.1236 58.4446 89.8471 58.5356 89.6269 58.7558L91.0411 60.17C90.9924 60.2187 90.9481 60.2512 90.9187 60.2707C90.8886 60.2906 90.8647 60.303 90.8515 60.3095C90.827 60.3215 90.8195 60.3224 90.8404 60.3158C90.859 60.3099 90.8911 60.301 90.9399 60.29C90.988 60.2792 91.0473 60.2674 91.1191 60.255L90.7793 58.2841ZM89.4422 59.0104C88.9817 59.9179 88.7002 60.9288 88.5837 62.0295L90.5726 62.2401C90.667 61.3485 90.8894 60.5782 91.2257 59.9154L89.4422 59.0104ZM89.675 63.1301L94.3684 62.673L94.1746 60.6824L89.4812 61.1395L89.675 63.1301ZM95.2635 61.5515L95.0174 59.6179L93.0334 59.8704L93.2795 61.804L95.2635 61.5515Z" fill="#FAFAFA"/>
</svg>
