<svg width="136" height="15" viewBox="0 0 136 15" fill="none" xmlns="http://www.w3.org/2000/svg">
<path d="M7.224 7.624C7.21333 8.424 7.24 9.22933 7.304 10.04C7.368 10.84 7.384 11.6347 7.352 12.424C7.352 12.5947 7.368 12.7653 7.4 12.936C7.432 13.1067 7.464 13.2827 7.496 13.464H7.48C7.43733 13.4747 7.39467 13.496 7.352 13.528C7.32 13.5707 7.28267 13.592 7.24 13.592C6.84533 13.6027 6.44533 13.6027 6.04 13.592C6.008 13.592 5.97067 13.592 5.928 13.592C5.88533 13.592 5.85333 13.5813 5.832 13.56C5.768 13.496 5.69867 13.4587 5.624 13.448C5.56 13.4373 5.48533 13.432 5.4 13.432C5.34667 13.432 5.29333 13.416 5.24 13.384C5.18667 13.3627 5.13867 13.3467 5.096 13.336C5.02133 13.3147 4.94667 13.288 4.872 13.256C4.808 13.224 4.73333 13.2347 4.648 13.288C4.584 13.3093 4.50933 13.288 4.424 13.224C4.104 13.0533 3.78933 12.8773 3.48 12.696C3.17067 12.504 2.888 12.2853 2.632 12.04C2.344 11.784 2.072 11.5067 1.816 11.208C1.56 10.8987 1.35733 10.552 1.208 10.168C1.13333 9.96533 1.048 9.76267 0.952 9.56C0.866667 9.35733 0.792 9.15467 0.728 8.952C0.642667 8.70667 0.568 8.46133 0.504 8.216C0.44 7.96 0.413333 7.704 0.424 7.448C0.434667 7.02133 0.434667 6.60533 0.424 6.2C0.381333 5.752 0.429333 5.336 0.568 4.952C0.717333 4.55733 0.877333 4.168 1.048 3.784C1.18667 3.45333 1.35733 3.15467 1.56 2.888C1.77333 2.62133 1.98667 2.36 2.2 2.104C2.27467 2.01867 2.35467 1.944 2.44 1.88C2.52533 1.80533 2.61067 1.74667 2.696 1.704C2.94133 1.55467 3.18667 1.40533 3.432 1.256C3.688 1.10667 3.944 0.962666 4.2 0.823999C4.328 0.76 4.46133 0.706666 4.6 0.664C4.74933 0.610666 4.89333 0.562666 5.032 0.52C5.05333 0.498666 5.07467 0.493333 5.096 0.504C5.128 0.504 5.144 0.498666 5.144 0.487999C5.24 0.327999 5.35733 0.253332 5.496 0.263999C5.63467 0.263999 5.77333 0.263999 5.912 0.263999H8.888C8.92 0.402666 8.936 0.530666 8.936 0.648C8.936 0.904 8.93067 1.16 8.92 1.416C8.92 1.66133 8.92533 1.90667 8.936 2.152C8.94667 2.42933 8.95733 2.712 8.968 3C8.98933 3.288 9.00533 3.57067 9.016 3.848C9.048 4.11467 8.936 4.25333 8.68 4.264C8.46667 4.27467 8.248 4.27467 8.024 4.264C7.8 4.25333 7.56533 4.248 7.32 4.248C7.288 3.704 7.26133 3.17067 7.24 2.648C7.21867 2.12533 7.19733 1.60267 7.176 1.08H7.096V2.68C7.096 2.84 7.10133 3 7.112 3.16C7.12267 3.32 7.128 3.48533 7.128 3.656C7.14933 3.89067 7.16 4.136 7.16 4.392C7.16 4.63733 7.16 4.88267 7.16 5.128C7.17067 5.544 7.18133 5.96 7.192 6.376C7.21333 6.78133 7.224 7.19733 7.224 7.624ZM7.496 9.336C7.51733 8.99467 7.512 8.65333 7.48 8.312C7.448 7.97067 7.43733 7.62933 7.448 7.288H11.384C11.3947 7.33067 11.4053 7.37333 11.416 7.416C11.4373 7.45867 11.4533 7.50667 11.464 7.56C11.464 7.76267 11.464 7.96 11.464 8.152C11.4747 8.344 11.4853 8.54667 11.496 8.76C11.496 8.93067 11.4053 9.016 11.224 9.016C11.0853 9.016 10.936 9.01067 10.776 9C10.616 8.98933 10.4613 8.984 10.312 8.984H9.336C9.35733 9.29333 9.368 9.59733 9.368 9.896C9.368 10.184 9.368 10.4773 9.368 10.776C9.37867 10.9467 9.384 11.1227 9.384 11.304C9.384 11.4853 9.384 11.6667 9.384 11.848C9.37333 12.0507 9.368 12.2587 9.368 12.472C9.368 12.6853 9.35733 12.8987 9.336 13.112C9.32533 13.176 9.30933 13.24 9.288 13.304C9.27733 13.368 9.26667 13.4427 9.256 13.528C8.95733 13.464 8.65867 13.4587 8.36 13.512C8.072 13.5653 7.784 13.5493 7.496 13.464C7.496 13.1227 7.49067 12.7813 7.48 12.44C7.48 12.088 7.48 11.7467 7.48 11.416C7.48 11.0747 7.47467 10.728 7.464 10.376C7.464 10.024 7.47467 9.67733 7.496 9.336ZM17.5451 4.776C17.4705 4.73333 17.3958 4.72267 17.3211 4.744C17.2465 4.76533 17.1718 4.77067 17.0971 4.76C16.9478 4.73867 16.7931 4.73333 16.6331 4.744C16.4838 4.75467 16.3291 4.76 16.1691 4.76C15.8598 4.74933 15.5451 4.73867 15.2251 4.728C14.9158 4.71733 14.5958 4.70667 14.2651 4.696C14.2758 4.632 14.2811 4.57333 14.2811 4.52C14.2918 4.456 14.3025 4.39733 14.3131 4.344C14.3131 4.16267 14.3505 4.00267 14.4251 3.864C14.4998 3.72533 14.5851 3.592 14.6811 3.464C14.8518 3.24 15.0918 3.096 15.4011 3.032C15.5825 2.97867 15.7585 2.95733 15.9291 2.968C16.0998 2.968 16.2758 2.98933 16.4571 3.032C16.5745 3.04267 16.6865 3.08 16.7931 3.144C16.8998 3.19733 16.9905 3.26667 17.0651 3.352C17.1505 3.42667 17.2305 3.512 17.3051 3.608C17.3905 3.704 17.4491 3.816 17.4811 3.944C17.5131 4.04 17.5611 4.10933 17.6251 4.152C17.6785 4.184 17.6998 4.232 17.6891 4.296C17.6785 4.36 17.6731 4.424 17.6731 4.488C17.6731 4.552 17.6678 4.616 17.6571 4.68C17.6571 4.712 17.6465 4.744 17.6251 4.776C17.6038 4.79733 17.5771 4.79733 17.5451 4.776ZM17.4171 6.12L17.3691 8.712V11.416C17.3905 11.8747 17.3905 12.3333 17.3691 12.792C17.3478 13.2507 17.3638 13.704 17.4171 14.152H14.7291L14.6011 6.152C14.6651 6.14133 14.8091 6.136 15.0331 6.136C15.2678 6.12533 15.5345 6.12533 15.8331 6.136C16.1425 6.136 16.4411 6.136 16.7291 6.136C17.0171 6.136 17.2465 6.13067 17.4171 6.12ZM24.437 6.936C24.6717 6.94667 24.901 6.95733 25.125 6.968C25.3597 6.97867 25.5943 6.99467 25.829 7.016C25.8717 7.12267 25.8983 7.30933 25.909 7.576C25.9303 7.84267 25.9357 8.12533 25.925 8.424C25.925 8.72267 25.9037 8.97333 25.861 9.176C25.6263 9.16533 25.3863 9.16 25.141 9.16C24.9063 9.14933 24.6663 9.13867 24.421 9.128V10.664C24.4423 11.304 24.4423 11.944 24.421 12.584C24.4103 13.2133 24.4317 13.8427 24.485 14.472H21.733L21.669 9.08C21.4343 9.05867 21.1943 9.03733 20.949 9.016C20.7037 8.99467 20.453 8.97333 20.197 8.952V7.816C20.2077 7.63467 20.213 7.448 20.213 7.256C20.2237 7.064 20.245 6.904 20.277 6.776C20.309 6.648 20.357 6.6 20.421 6.632C20.6237 6.64267 20.8263 6.65867 21.029 6.68C21.2423 6.70133 21.4503 6.72267 21.653 6.744L21.621 3.352C21.685 3.33067 21.8343 3.32 22.069 3.32C22.3037 3.32 22.5757 3.32 22.885 3.32C23.1943 3.32 23.493 3.32 23.781 3.32C24.0797 3.30933 24.3143 3.29867 24.485 3.288L24.437 6.888V6.936ZM32.677 12.968C32.5383 12.9787 32.3997 12.984 32.261 12.984C32.1223 12.984 31.9837 12.984 31.845 12.984C31.845 13.4747 31.861 13.9707 31.893 14.472H29.157L29.029 3.352C29.093 3.33067 29.2423 3.32 29.477 3.32C29.7117 3.30933 29.9837 3.304 30.293 3.304C30.6023 3.304 30.901 3.304 31.189 3.304C31.4877 3.304 31.7277 3.29867 31.909 3.288L31.845 6.888V9.384C31.8877 9.352 31.9303 9.33067 31.973 9.32C32.0157 9.29867 32.0743 9.288 32.149 9.288C32.2023 9.27733 32.2557 9.27733 32.309 9.288C32.373 9.288 32.4263 9.28267 32.469 9.272C32.9383 9.21867 33.3703 9.27733 33.765 9.448C34.1703 9.608 34.5543 9.82667 34.917 10.104C35.4183 10.488 35.7703 11 35.973 11.64C36.0263 11.7787 36.0637 11.9333 36.085 12.104C36.1063 12.264 36.1223 12.4187 36.133 12.568C36.1437 12.7067 36.1277 12.7973 36.085 12.84C36.0423 12.872 35.9517 12.8933 35.813 12.904C35.2903 12.9147 34.7677 12.9253 34.245 12.936C33.7223 12.9467 33.1997 12.9573 32.677 12.968ZM36.053 13.048C36.053 13.048 36.0583 13.048 36.069 13.048C36.0797 13.048 36.0957 13.0533 36.117 13.064L36.165 14.2C35.9623 14.1893 35.7597 14.1947 35.557 14.216C35.365 14.2373 35.1623 14.232 34.949 14.2C34.7677 14.1787 34.581 14.168 34.389 14.168C34.197 14.1787 34.0103 14.184 33.829 14.184H33.397C33.2263 14.1627 33.141 14.088 33.141 13.96C33.1517 13.8427 33.157 13.7253 33.157 13.608C33.1677 13.5013 33.1783 13.3947 33.189 13.288C33.2103 13.1493 33.2903 13.08 33.429 13.08C33.8663 13.0693 34.3037 13.064 34.741 13.064C35.1783 13.064 35.6157 13.0587 36.053 13.048ZM45.7675 5.192C45.8102 5.608 45.8528 6.02933 45.8955 6.456C45.9382 6.872 45.9808 7.28267 46.0235 7.688C46.0448 8.05067 46.0502 8.37067 46.0395 8.648C46.0395 8.92533 46.0342 9.064 46.0235 9.064V13.432H42.7915C42.7808 13.3147 42.7702 13.2027 42.7595 13.096C42.7595 13 42.7595 12.904 42.7595 12.808C42.7275 11.176 42.7115 9.54933 42.7115 7.928C42.7115 7.49067 42.7222 7.04267 42.7435 6.584C42.7648 6.12533 42.7808 5.66133 42.7915 5.192H45.7675ZM41.4795 6.12C41.4368 6.74933 41.3888 7.384 41.3355 8.024C41.2822 8.664 41.2288 9.30933 41.1755 9.96L42.5835 9.992C42.5728 10.4187 42.5675 10.8453 42.5675 11.272C42.5675 11.688 42.5675 12.1093 42.5675 12.536C42.5568 12.5787 42.5462 12.6213 42.5355 12.664C42.5248 12.696 42.5195 12.7333 42.5195 12.776C42.5195 12.84 42.5195 12.904 42.5195 12.968C42.5302 13.0213 42.5408 13.1013 42.5515 13.208C42.5408 13.2187 42.5195 13.2347 42.4875 13.256C42.4555 13.288 42.4182 13.304 42.3755 13.304C42.2688 13.3147 42.1622 13.3093 42.0555 13.288C41.9488 13.2773 41.8422 13.2613 41.7355 13.24C41.6288 13.2187 41.5275 13.1973 41.4315 13.176C41.3355 13.1547 41.2395 13.1333 41.1435 13.112C41.1008 13.1013 41.0475 13.0747 40.9835 13.032C40.9408 13.0107 40.8982 12.9893 40.8555 12.968C40.8128 12.936 40.7648 12.9093 40.7115 12.888C40.2208 12.6 39.8635 12.2373 39.6395 11.8C39.4155 11.3627 39.2715 10.8827 39.2075 10.36H39.1755C39.1755 10.3067 39.1755 10.2533 39.1755 10.2C39.1862 10.1467 39.1915 10.0987 39.1915 10.056C39.1808 10.0347 39.1755 10.008 39.1755 9.976C39.1755 9.944 39.1755 9.91733 39.1755 9.896H39.1915C39.1915 9.672 39.1915 9.448 39.1915 9.224C39.2022 9 39.2235 8.78133 39.2555 8.568C39.2982 8.312 39.3248 8.056 39.3355 7.8C39.3462 7.544 39.3568 7.288 39.3675 7.032C39.3782 6.808 39.3888 6.57867 39.3995 6.344C39.4208 6.09867 39.4368 5.84267 39.4475 5.576C39.7462 5.58667 40.0395 5.58133 40.3275 5.56C40.6155 5.53867 40.8928 5.58133 41.1595 5.688C41.2875 5.73067 41.3782 5.77867 41.4315 5.832C41.4848 5.88533 41.5008 5.98133 41.4795 6.12ZM53.047 3.176L52.999 6.824C52.999 6.824 52.999 6.936 52.999 7.16C52.999 7.37333 52.999 7.64533 52.999 7.976C52.999 8.30667 52.9937 8.65333 52.983 9.016C52.983 9.368 52.983 9.69333 52.983 9.992C52.983 10.2907 52.983 10.504 52.983 10.632C53.0043 11.2827 53.0043 11.9333 52.983 12.584C52.9723 13.2347 52.9937 13.8747 53.047 14.504H50.263L50.135 3.24C50.199 3.21867 50.3483 3.208 50.583 3.208C50.8283 3.19733 51.1057 3.192 51.415 3.192C51.7243 3.192 52.0283 3.192 52.327 3.192C52.6257 3.192 52.8657 3.18667 53.047 3.176ZM57.031 9.832C57.031 10.0133 57.0257 10.1947 57.015 10.376C57.015 10.5573 57.0203 10.7387 57.031 10.92C57.0523 11.208 57.015 11.4747 56.919 11.72C56.823 11.9653 56.7003 12.2 56.551 12.424C56.0497 13.128 55.367 13.6187 54.503 13.896C54.4603 13.9067 54.4123 13.9227 54.359 13.944C54.3163 13.976 54.2683 13.992 54.215 13.992C54.0977 14.0027 53.9803 14.008 53.863 14.008C53.7457 14.008 53.6283 14.008 53.511 14.008C53.511 13.9227 53.5057 13.8427 53.495 13.768C53.495 13.6933 53.5003 13.624 53.511 13.56C53.5217 13.368 53.527 13.1813 53.527 13C53.5377 12.808 53.5483 12.616 53.559 12.424C53.5697 12.2427 53.5803 12.0613 53.591 11.88C53.6123 11.688 53.6283 11.5013 53.639 11.32C53.6497 11.16 53.655 11 53.655 10.84C53.655 10.6693 53.655 10.4987 53.655 10.328C53.6443 10.1467 53.6337 9.97067 53.623 9.8C53.6123 9.62933 53.6017 9.45867 53.591 9.288C53.591 9.10667 53.591 8.936 53.591 8.776C53.591 8.60533 53.6123 8.44 53.655 8.28C53.655 8.248 53.6497 8.216 53.639 8.184C53.6283 8.152 53.6123 8.12 53.591 8.088C53.591 8.04533 53.5803 8.008 53.559 7.976C53.5483 7.93333 53.543 7.89067 53.543 7.848C53.5323 7.752 53.5323 7.656 53.543 7.56C53.5643 7.464 53.5643 7.368 53.543 7.272C53.5323 7.176 53.591 7.11733 53.719 7.096C53.8577 7.08533 53.991 7.096 54.119 7.128C54.247 7.14933 54.375 7.18133 54.503 7.224C54.7377 7.288 54.9563 7.37867 55.159 7.496C55.3617 7.60267 55.5643 7.72 55.767 7.848C56.087 8.05067 56.343 8.30667 56.535 8.616C56.727 8.92533 56.887 9.26133 57.015 9.624C57.0257 9.656 57.031 9.69333 57.031 9.736C57.031 9.768 57.031 9.8 57.031 9.832ZM83.8461 3.848C83.8888 4.33867 83.9261 4.82933 83.9581 5.32C84.0008 5.81067 84.0435 6.29067 84.0861 6.76C84.1075 7.18667 84.1128 7.56533 84.1021 7.896C84.1021 8.216 84.0968 8.376 84.0861 8.376V13.512H80.9981C80.9875 13.384 80.9821 13.256 80.9821 13.128C80.9821 13 80.9821 12.8827 80.9821 12.776C80.9715 11.8267 80.9555 10.8773 80.9341 9.928C80.9235 8.968 80.9181 8.01333 80.9181 7.064C80.9181 6.54133 80.9288 6.01333 80.9501 5.48C80.9715 4.94667 80.9875 4.40267 80.9981 3.848H83.8461ZM76.3101 9.864C76.2995 9.82133 76.2941 9.784 76.2941 9.752C76.2941 9.72 76.2941 9.688 76.2941 9.656V9.304C76.2515 8.77067 76.3315 8.29067 76.5341 7.864C76.7368 7.43733 76.9981 7.02667 77.3181 6.632C77.7661 6.088 78.3475 5.72533 79.0621 5.544C79.2328 5.49067 79.4035 5.45867 79.5741 5.448C79.7555 5.43733 79.9315 5.42667 80.1021 5.416C80.2621 5.40533 80.3581 5.42667 80.3901 5.48C80.4328 5.53333 80.4541 5.63467 80.4541 5.784C80.4435 6.36 80.4328 6.936 80.4221 7.512C80.4221 8.088 80.4115 8.66933 80.3901 9.256C80.3795 9.59733 80.3688 9.93867 80.3581 10.28C80.3475 10.6213 80.3315 10.9627 80.3101 11.304C80.2995 11.3147 80.3048 11.3573 80.3261 11.432L80.3101 11.912C80.2888 12.1147 80.2621 12.312 80.2301 12.504C80.2088 12.696 80.1821 12.8987 80.1501 13.112C79.9795 13.08 79.8141 13.048 79.6541 13.016C79.4941 12.9947 79.3395 12.9627 79.1901 12.92C78.6675 12.792 78.2248 12.568 77.8621 12.248C77.4995 11.9173 77.1795 11.528 76.9021 11.08C76.7955 10.8773 76.6941 10.6747 76.5981 10.472C76.5021 10.2693 76.4061 10.0667 76.3101 9.864ZM90.9144 7.176C90.9037 7.4 90.8877 7.624 90.8664 7.848C90.8557 8.06133 90.8397 8.27467 90.8184 8.488C90.8077 8.68 90.8024 8.872 90.8024 9.064C90.8024 9.256 90.8024 9.45333 90.8024 9.656C90.813 9.85867 90.8237 10.0667 90.8344 10.28C90.845 10.4827 90.8557 10.6907 90.8664 10.904C90.877 11.1067 90.8824 11.3093 90.8824 11.512C90.8824 11.704 90.8557 11.896 90.8024 12.088C90.7917 12.12 90.797 12.1573 90.8184 12.2C90.8397 12.232 90.8557 12.264 90.8664 12.296C90.877 12.3493 90.8877 12.3973 90.8984 12.44C90.9197 12.4827 90.9304 12.5307 90.9304 12.584C90.941 12.7013 90.9357 12.8133 90.9144 12.92C90.893 13.0267 90.8984 13.1387 90.9304 13.256C90.941 13.3733 90.8717 13.4427 90.7224 13.464C90.5517 13.4747 90.3917 13.464 90.2424 13.432C90.093 13.4 89.9437 13.3627 89.7944 13.32C89.5277 13.2347 89.2717 13.128 89.0264 13C88.7917 12.872 88.5517 12.7387 88.3064 12.6C87.9224 12.344 87.6184 12.0347 87.3944 11.672C87.1704 11.3093 86.9837 10.9147 86.8344 10.488C86.8237 10.4453 86.8184 10.408 86.8184 10.376C86.8184 10.3333 86.8184 10.2907 86.8184 10.248C86.8184 10.0347 86.8184 9.82133 86.8184 9.608C86.829 9.39467 86.8237 9.18133 86.8024 8.968C86.7917 8.62667 86.8397 8.312 86.9464 8.024C87.0637 7.736 87.2077 7.45867 87.3784 7.192C87.965 6.36 88.7704 5.77867 89.7944 5.448C89.8477 5.42667 89.901 5.4 89.9544 5.368C90.0184 5.336 90.0824 5.32 90.1464 5.32C90.285 5.30933 90.4237 5.304 90.5624 5.304C90.701 5.304 90.8344 5.304 90.9624 5.304C90.9624 5.41067 90.9624 5.50667 90.9624 5.592C90.973 5.66667 90.973 5.74667 90.9624 5.832C90.9517 6.056 90.941 6.28533 90.9304 6.52C90.9304 6.744 90.925 6.96267 90.9144 7.176ZM91.4904 8.472C91.341 8.45067 91.2664 8.36 91.2664 8.2C91.2877 7.73067 91.309 7.26133 91.3304 6.792C91.3517 6.32267 91.373 5.85333 91.3944 5.384C91.3944 5.384 91.3944 5.37867 91.3944 5.368C91.405 5.35733 91.4157 5.34667 91.4264 5.336H92.6424C92.621 5.56 92.6157 5.784 92.6264 6.008C92.637 6.22133 92.621 6.43467 92.5784 6.648C92.5357 6.84 92.509 7.03733 92.4984 7.24C92.4984 7.44267 92.493 7.64533 92.4824 7.848C92.4717 7.92267 92.4664 7.99733 92.4664 8.072C92.4664 8.14667 92.461 8.22667 92.4504 8.312C92.429 8.49333 92.3437 8.57867 92.1944 8.568C92.077 8.55733 91.9597 8.54667 91.8424 8.536C91.725 8.52533 91.6077 8.504 91.4904 8.472ZM91.2664 13.176C91.2664 13.08 91.261 12.984 91.2504 12.888C91.2504 12.7813 91.2557 12.68 91.2664 12.584C91.2664 12.296 91.2664 12.0133 91.2664 11.736C91.277 11.448 91.2877 11.1547 91.2984 10.856C91.2984 10.7173 91.3197 10.632 91.3624 10.6C91.405 10.5573 91.4904 10.536 91.6184 10.536C91.757 10.5147 91.8957 10.5093 92.0344 10.52C92.173 10.5307 92.3277 10.536 92.4984 10.536C92.4984 10.6427 92.4984 10.7493 92.4984 10.856C92.509 10.952 92.5144 11.0427 92.5144 11.128C92.5144 11.2987 92.509 11.464 92.4984 11.624C92.4984 11.784 92.4984 11.9387 92.4984 12.088C92.4984 12.248 92.493 12.408 92.4824 12.568C92.4824 12.728 92.493 12.888 92.5144 13.048C92.5357 13.1547 92.525 13.224 92.4824 13.256C92.4504 13.2987 92.381 13.3307 92.2744 13.352C92.1677 13.3627 92.061 13.3733 91.9544 13.384C91.8477 13.4053 91.741 13.4267 91.6344 13.448C91.3997 13.48 91.277 13.3893 91.2664 13.176ZM100.296 6.936C100.531 6.94667 100.76 6.95733 100.984 6.968C101.219 6.97867 101.454 6.99467 101.688 7.016C101.731 7.12267 101.758 7.30933 101.768 7.576C101.79 7.84267 101.795 8.12533 101.784 8.424C101.784 8.72267 101.763 8.97333 101.72 9.176C101.486 9.16533 101.246 9.16 101 9.16C100.766 9.14933 100.526 9.13867 100.28 9.128V10.664C100.302 11.304 100.302 11.944 100.28 12.584C100.27 13.2133 100.291 13.8427 100.344 14.472H97.5924L97.5284 9.08C97.2937 9.05867 97.0537 9.03733 96.8084 9.016C96.563 8.99467 96.3124 8.97333 96.0564 8.952V7.816C96.067 7.63467 96.0724 7.448 96.0724 7.256C96.083 7.064 96.1044 6.904 96.1364 6.776C96.1684 6.648 96.2164 6.6 96.2804 6.632C96.483 6.64267 96.6857 6.65867 96.8884 6.68C97.1017 6.70133 97.3097 6.72267 97.5124 6.744L97.4804 3.352C97.5444 3.33067 97.6937 3.32 97.9284 3.32C98.163 3.32 98.435 3.32 98.7444 3.32C99.0537 3.32 99.3524 3.32 99.6404 3.32C99.939 3.30933 100.174 3.29867 100.344 3.288L100.296 6.888V6.936ZM107.576 4.776C107.502 4.73333 107.427 4.72267 107.352 4.744C107.278 4.76533 107.203 4.77067 107.128 4.76C106.979 4.73867 106.824 4.73333 106.664 4.744C106.515 4.75467 106.36 4.76 106.2 4.76C105.891 4.74933 105.576 4.73867 105.256 4.728C104.947 4.71733 104.627 4.70667 104.296 4.696C104.307 4.632 104.312 4.57333 104.312 4.52C104.323 4.456 104.334 4.39733 104.344 4.344C104.344 4.16267 104.382 4.00267 104.456 3.864C104.531 3.72533 104.616 3.592 104.712 3.464C104.883 3.24 105.123 3.096 105.432 3.032C105.614 2.97867 105.79 2.95733 105.96 2.968C106.131 2.968 106.307 2.98933 106.488 3.032C106.606 3.04267 106.718 3.08 106.824 3.144C106.931 3.19733 107.022 3.26667 107.096 3.352C107.182 3.42667 107.262 3.512 107.336 3.608C107.422 3.704 107.48 3.816 107.512 3.944C107.544 4.04 107.592 4.10933 107.656 4.152C107.71 4.184 107.731 4.232 107.72 4.296C107.71 4.36 107.704 4.424 107.704 4.488C107.704 4.552 107.699 4.616 107.688 4.68C107.688 4.712 107.678 4.744 107.656 4.776C107.635 4.79733 107.608 4.79733 107.576 4.776ZM107.448 6.12L107.4 8.712V11.416C107.422 11.8747 107.422 12.3333 107.4 12.792C107.379 13.2507 107.395 13.704 107.448 14.152H104.76L104.632 6.152C104.696 6.14133 104.84 6.136 105.064 6.136C105.299 6.12533 105.566 6.12533 105.864 6.136C106.174 6.136 106.472 6.136 106.76 6.136C107.048 6.136 107.278 6.13067 107.448 6.12ZM117.812 8.728C117.802 8.856 117.791 8.98933 117.78 9.128C117.77 9.256 117.754 9.384 117.732 9.512C117.722 9.58667 117.7 9.65067 117.668 9.704C117.636 9.74667 117.578 9.74667 117.492 9.704C117.343 9.61867 117.188 9.592 117.028 9.624C116.879 9.64533 116.73 9.65067 116.58 9.64C116.271 9.608 115.956 9.59733 115.636 9.608C115.327 9.608 115.018 9.60267 114.708 9.592C114.068 9.56 113.423 9.52267 112.772 9.48C112.132 9.43733 111.471 9.39467 110.788 9.352C110.81 9.21333 110.831 9.08533 110.852 8.968C110.884 8.84 110.906 8.72267 110.916 8.616C110.927 8.264 111.012 7.944 111.172 7.656C111.343 7.368 111.535 7.096 111.748 6.84C111.93 6.62667 112.143 6.45067 112.388 6.312C112.644 6.17333 112.916 6.072 113.204 6.008C113.578 5.92267 113.94 5.89067 114.292 5.912C114.655 5.92267 115.018 5.97067 115.38 6.056C115.626 6.10933 115.85 6.2 116.052 6.328C116.255 6.44533 116.442 6.584 116.612 6.744C116.794 6.91467 116.959 7.10133 117.108 7.304C117.268 7.50667 117.38 7.736 117.444 7.992C117.466 8.06667 117.492 8.14667 117.524 8.232C117.567 8.30667 117.626 8.37067 117.7 8.424C117.743 8.456 117.775 8.49867 117.796 8.552C117.828 8.59467 117.834 8.65333 117.812 8.728ZM110.724 10.904C110.714 10.9147 110.692 10.9307 110.66 10.952C110.628 10.9733 110.586 11 110.532 11.032C110.522 10.9787 110.511 10.936 110.5 10.904C110.49 10.8613 110.49 10.8187 110.5 10.776C110.511 10.616 110.522 10.456 110.532 10.296C110.543 10.136 110.554 9.97067 110.564 9.8C110.575 9.71467 110.586 9.64 110.596 9.576C110.618 9.512 110.682 9.47467 110.788 9.464C110.895 9.44267 110.97 9.45867 111.012 9.512C111.066 9.56533 111.103 9.63467 111.124 9.72C111.135 9.73067 111.14 9.74133 111.14 9.752C111.151 9.76267 111.167 9.784 111.188 9.816C111.37 9.82667 111.556 9.832 111.748 9.832C111.951 9.832 112.154 9.83733 112.356 9.848C113.114 9.85867 113.866 9.86933 114.612 9.88C115.359 9.88 116.106 9.88533 116.852 9.896C116.895 9.896 116.938 9.90133 116.98 9.912C117.023 9.92267 117.066 9.928 117.108 9.928C117.172 9.93867 117.242 9.944 117.316 9.944C117.391 9.93333 117.482 9.92267 117.588 9.912C117.599 9.92267 117.62 9.944 117.652 9.976C117.684 10.008 117.7 10.0507 117.7 10.104C117.7 10.3067 117.674 10.5253 117.62 10.76C117.61 10.8667 117.588 10.9733 117.556 11.08C117.524 11.176 117.498 11.2773 117.476 11.384C117.466 11.4267 117.439 11.48 117.396 11.544C117.364 11.5867 117.332 11.6347 117.3 11.688C117.268 11.7307 117.242 11.7787 117.22 11.832C116.9 12.3547 116.495 12.7333 116.004 12.968C115.524 13.2027 114.996 13.3467 114.42 13.4C114.164 13.4107 113.908 13.4107 113.652 13.4C113.407 13.3893 113.162 13.352 112.916 13.288C112.852 13.288 112.804 13.272 112.772 13.24C112.57 13.1227 112.367 13 112.164 12.872C111.962 12.7333 111.764 12.5947 111.572 12.456C111.519 12.4133 111.471 12.3547 111.428 12.28C111.386 12.2053 111.348 12.136 111.316 12.072C111.21 11.88 111.108 11.688 111.012 11.496C110.927 11.304 110.831 11.1067 110.724 10.904ZM120.614 9.896V5.528H123.814C123.835 5.63467 123.846 5.74133 123.846 5.848C123.846 5.95467 123.846 6.056 123.846 6.152C123.878 7.76267 123.894 9.384 123.894 11.016C123.894 11.4533 123.883 11.9013 123.862 12.36C123.851 12.808 123.835 13.2613 123.814 13.72H120.854C120.811 13.3147 120.768 12.904 120.726 12.488C120.694 12.072 120.656 11.6667 120.614 11.272C120.603 10.8987 120.598 10.5787 120.598 10.312C120.598 10.0347 120.603 9.896 120.614 9.896ZM127.382 8.6H127.398V9.048C127.387 9.28267 127.382 9.512 127.382 9.736C127.382 9.94933 127.36 10.168 127.318 10.392C127.275 10.6373 127.254 10.888 127.254 11.144C127.254 11.4 127.243 11.656 127.222 11.912C127.211 12.136 127.2 12.3707 127.19 12.616C127.179 12.8507 127.163 13.096 127.142 13.352C126.843 13.3413 126.555 13.3467 126.278 13.368C126 13.3893 125.723 13.3467 125.446 13.24C125.307 13.1973 125.211 13.1493 125.158 13.096C125.115 13.0427 125.099 12.952 125.11 12.824C125.163 12.1947 125.216 11.56 125.27 10.92C125.323 10.28 125.376 9.64 125.43 9L124.022 8.952C124.032 8.536 124.038 8.12 124.038 7.704C124.038 7.27733 124.038 6.85067 124.038 6.424C124.048 6.38133 124.059 6.344 124.07 6.312C124.08 6.26933 124.086 6.22667 124.086 6.184C124.086 6.13067 124.08 6.072 124.07 6.008C124.07 5.93333 124.064 5.84267 124.054 5.736C124.064 5.736 124.086 5.72 124.118 5.688C124.15 5.656 124.187 5.64 124.23 5.64C124.347 5.64 124.454 5.64533 124.55 5.656C124.656 5.66667 124.763 5.68267 124.87 5.704C124.966 5.71467 125.062 5.736 125.158 5.768C125.254 5.78933 125.35 5.81067 125.446 5.832C125.488 5.84267 125.542 5.86933 125.606 5.912C125.702 5.95467 125.792 6.01333 125.878 6.088C126.368 6.36533 126.726 6.72267 126.95 7.16C127.174 7.59733 127.318 8.07733 127.382 8.6ZM134.718 5.864C135.102 6.088 135.38 6.37067 135.55 6.712C135.721 7.05333 135.828 7.432 135.87 7.848C135.881 7.89067 135.886 7.93867 135.886 7.992C135.886 8.03467 135.886 8.08267 135.886 8.136L133.294 8.072C133.294 7.74133 133.294 7.416 133.294 7.096C133.294 6.776 133.3 6.45067 133.31 6.12C133.31 6.088 133.321 6.02933 133.342 5.944C133.342 5.89067 133.337 5.83733 133.326 5.784C133.326 5.73067 133.321 5.66667 133.31 5.592C133.321 5.592 133.337 5.58133 133.358 5.56C133.39 5.53867 133.422 5.528 133.454 5.528C133.54 5.51733 133.62 5.51733 133.694 5.528C133.78 5.53867 133.86 5.55467 133.934 5.576C134.02 5.58667 134.094 5.60267 134.158 5.624C134.233 5.63467 134.308 5.65067 134.382 5.672C134.446 5.69333 134.489 5.71467 134.51 5.736C134.585 5.768 134.654 5.81067 134.718 5.864ZM133.054 5.624C133.108 5.63467 133.15 5.656 133.182 5.688C133.214 5.70933 133.22 5.74667 133.198 5.8C133.134 5.90667 133.113 6.01333 133.134 6.12C133.156 6.22667 133.161 6.33333 133.15 6.44C133.129 6.65333 133.118 6.872 133.118 7.096C133.129 7.32 133.129 7.544 133.118 7.768C133.097 8.216 133.07 8.66933 133.038 9.128C133.006 9.576 132.974 10.04 132.942 10.52C132.846 10.4987 132.756 10.4827 132.67 10.472C132.596 10.4507 132.516 10.44 132.43 10.44C132.185 10.4187 131.961 10.3547 131.758 10.248C131.556 10.1307 131.364 9.99733 131.182 9.848C131.022 9.72 130.894 9.56533 130.798 9.384C130.713 9.20267 130.644 9.01067 130.59 8.808C130.537 8.552 130.516 8.30133 130.526 8.056C130.537 7.8 130.569 7.544 130.622 7.288C130.697 6.94667 130.862 6.65867 131.118 6.424C131.236 6.296 131.364 6.17867 131.502 6.072C131.652 5.96533 131.812 5.89067 131.982 5.848C132.036 5.82667 132.089 5.80533 132.142 5.784C132.196 5.752 132.244 5.70933 132.286 5.656C132.35 5.58133 132.425 5.55467 132.51 5.576C132.596 5.58667 132.686 5.59733 132.782 5.608C132.878 5.608 132.969 5.61333 133.054 5.624ZM134.494 9.496C134.857 9.70933 135.118 9.98133 135.278 10.312C135.438 10.6427 135.534 11.0053 135.566 11.4C135.588 11.5707 135.593 11.7413 135.582 11.912C135.582 12.0827 135.556 12.2533 135.502 12.424C135.502 12.4773 135.492 12.5093 135.47 12.52C135.385 12.6587 135.3 12.7973 135.214 12.936C135.129 13.064 135.033 13.192 134.926 13.32C134.894 13.3627 134.852 13.3947 134.798 13.416C134.756 13.448 134.708 13.48 134.654 13.512C134.526 13.576 134.398 13.64 134.27 13.704C134.142 13.768 134.009 13.8373 133.87 13.912C133.881 13.9227 133.892 13.9333 133.902 13.944C133.913 13.9653 133.934 13.992 133.966 14.024C133.924 14.0347 133.886 14.0453 133.854 14.056C133.833 14.0667 133.806 14.0667 133.774 14.056C133.668 14.056 133.561 14.0507 133.454 14.04C133.348 14.0293 133.236 14.0187 133.118 14.008C133.065 14.008 133.017 14.0027 132.974 13.992C132.932 13.9813 132.9 13.9387 132.878 13.864C132.868 13.7467 132.926 13.6667 133.054 13.624C133.065 13.624 133.076 13.6187 133.086 13.608C133.097 13.608 133.113 13.6027 133.134 13.592C133.134 13.464 133.134 13.3307 133.134 13.192C133.134 13.064 133.14 12.936 133.15 12.808C133.161 12.296 133.166 11.784 133.166 11.272C133.166 10.76 133.172 10.2533 133.182 9.752C133.182 9.69867 133.193 9.64 133.214 9.576C133.214 9.52267 133.209 9.47467 133.198 9.432C133.198 9.37867 133.193 9.31467 133.182 9.24C133.193 9.24 133.209 9.22933 133.23 9.208C133.262 9.18667 133.294 9.176 133.326 9.176C133.401 9.16533 133.476 9.16533 133.55 9.176C133.625 9.18667 133.7 9.20267 133.774 9.224C133.849 9.23467 133.918 9.25067 133.982 9.272C134.046 9.28267 134.116 9.29867 134.19 9.32C134.212 9.32 134.233 9.32533 134.254 9.336C134.276 9.34667 134.292 9.35733 134.302 9.368L134.494 9.496ZM132.926 13.224C132.926 13.2773 132.926 13.3307 132.926 13.384C132.937 13.4373 132.948 13.5067 132.958 13.592C132.948 13.6027 132.926 13.6187 132.894 13.64C132.873 13.6613 132.841 13.6773 132.798 13.688C132.713 13.688 132.628 13.6773 132.542 13.656C132.457 13.6453 132.372 13.6347 132.286 13.624C132.201 13.6027 132.121 13.5813 132.046 13.56C131.972 13.5493 131.892 13.5387 131.806 13.528C131.785 13.5173 131.764 13.5067 131.742 13.496C131.721 13.4853 131.7 13.4747 131.678 13.464C131.636 13.4427 131.593 13.416 131.55 13.384C131.518 13.3627 131.481 13.3413 131.438 13.32C131.033 13.0853 130.74 12.7867 130.558 12.424C130.377 12.0507 130.26 11.6453 130.206 11.208C130.196 11.1547 130.19 11.1013 130.19 11.048C130.19 10.9947 130.19 10.9413 130.19 10.888L132.974 10.968C132.974 11.3093 132.974 11.656 132.974 12.008C132.974 12.3493 132.969 12.6907 132.958 13.032C132.958 13.064 132.953 13.096 132.942 13.128C132.932 13.16 132.926 13.192 132.926 13.224Z" fill="black"/>
</svg>
