<svg width="97" height="49" viewBox="0 0 97 49" fill="none" xmlns="http://www.w3.org/2000/svg">
<path d="M25 0H71L59.6769 26H37.7385L25 0Z" fill="black"/>
<ellipse cx="48.5" cy="29" rx="48.5" ry="5" fill="black"/>
<path d="M12.072 45.368C12.008 45.4 11.92 45.424 11.808 45.44C11.712 45.472 11.608 45.48 11.496 45.464C11.144 45.432 10.784 45.424 10.416 45.44C10.048 45.456 9.68 45.48 9.312 45.512C8.688 45.528 8.152 45.392 7.704 45.104C7.256 44.832 6.848 44.488 6.48 44.072C6.192 43.752 5.96 43.4 5.784 43.016C5.624 42.616 5.472 42.216 5.328 41.816C5.28 41.688 5.264 41.544 5.28 41.384C5.296 41.224 5.304 41.048 5.304 40.856C6.248 40.824 7.176 40.792 8.088 40.76C9 40.728 9.904 40.704 10.8 40.688C10.784 40.576 10.76 40.456 10.728 40.328C10.712 40.2 10.704 40.072 10.704 39.944C10.704 39 10.704 38.056 10.704 37.112C10.72 36.168 10.72 35.224 10.704 34.28C10.688 33.608 10.664 32.944 10.632 32.288C10.6 31.616 10.576 30.952 10.56 30.296C10.544 29.448 10.536 28.616 10.536 27.8C10.552 26.984 10.56 26.16 10.56 25.328V24.56H14.856C14.872 24.64 14.88 24.72 14.88 24.8C14.896 24.864 14.904 24.936 14.904 25.016V40.088C14.904 40.328 14.896 40.56 14.88 40.784C14.88 41.008 14.888 41.232 14.904 41.456C14.968 42.064 14.824 42.632 14.472 43.16C14.152 43.608 13.8 44.032 13.416 44.432C13.048 44.832 12.6 45.144 12.072 45.368ZM29.37 32.288C29.434 32.912 29.498 33.544 29.562 34.184C29.626 34.808 29.69 35.424 29.754 36.032C29.786 36.576 29.794 37.056 29.778 37.472C29.778 37.888 29.77 38.096 29.754 38.096V44.648H24.906C24.89 44.472 24.874 44.304 24.858 44.144C24.858 44 24.858 43.856 24.858 43.712C24.81 41.264 24.786 38.824 24.786 36.392C24.786 35.736 24.802 35.064 24.834 34.376C24.866 33.688 24.89 32.992 24.906 32.288H29.37ZM22.938 33.68C22.874 34.624 22.802 35.576 22.722 36.536C22.642 37.496 22.562 38.464 22.482 39.44L24.594 39.488C24.578 40.128 24.57 40.768 24.57 41.408C24.57 42.032 24.57 42.664 24.57 43.304C24.554 43.368 24.538 43.432 24.522 43.496C24.506 43.544 24.498 43.6 24.498 43.664C24.498 43.76 24.498 43.856 24.498 43.952C24.514 44.032 24.53 44.152 24.546 44.312C24.53 44.328 24.498 44.352 24.45 44.384C24.402 44.432 24.346 44.456 24.282 44.456C24.122 44.472 23.962 44.464 23.802 44.432C23.642 44.416 23.482 44.392 23.322 44.36C23.162 44.328 23.01 44.296 22.866 44.264C22.722 44.232 22.578 44.2 22.434 44.168C22.37 44.152 22.29 44.112 22.194 44.048C22.13 44.016 22.066 43.984 22.002 43.952C21.938 43.904 21.866 43.864 21.786 43.832C21.05 43.4 20.514 42.856 20.178 42.2C19.842 41.544 19.626 40.824 19.53 40.04H19.482C19.482 39.96 19.482 39.88 19.482 39.8C19.498 39.72 19.506 39.648 19.506 39.584C19.49 39.552 19.482 39.512 19.482 39.464C19.482 39.416 19.482 39.376 19.482 39.344H19.506C19.506 39.008 19.506 38.672 19.506 38.336C19.522 38 19.554 37.672 19.602 37.352C19.666 36.968 19.706 36.584 19.722 36.2C19.738 35.816 19.754 35.432 19.77 35.048C19.786 34.712 19.802 34.368 19.818 34.016C19.85 33.648 19.874 33.264 19.89 32.864C20.338 32.88 20.778 32.872 21.21 32.84C21.642 32.808 22.058 32.872 22.458 33.032C22.65 33.096 22.786 33.168 22.866 33.248C22.946 33.328 22.97 33.472 22.938 33.68ZM35.5613 39.344V32.792H40.3613C40.3933 32.952 40.4093 33.112 40.4093 33.272C40.4093 33.432 40.4093 33.584 40.4093 33.728C40.4573 36.144 40.4813 38.576 40.4813 41.024C40.4813 41.68 40.4653 42.352 40.4333 43.04C40.4173 43.712 40.3933 44.392 40.3613 45.08H35.9213C35.8573 44.472 35.7933 43.856 35.7293 43.232C35.6813 42.608 35.6253 42 35.5613 41.408C35.5453 40.848 35.5373 40.368 35.5373 39.968C35.5373 39.552 35.5453 39.344 35.5613 39.344ZM45.7133 37.4H45.7373V38.072C45.7213 38.424 45.7133 38.768 45.7133 39.104C45.7133 39.424 45.6813 39.752 45.6172 40.088C45.5533 40.456 45.5213 40.832 45.5213 41.216C45.5213 41.6 45.5053 41.984 45.4733 42.368C45.4573 42.704 45.4413 43.056 45.4253 43.424C45.4093 43.776 45.3853 44.144 45.3533 44.528C44.9053 44.512 44.4733 44.52 44.0573 44.552C43.6413 44.584 43.2253 44.52 42.8093 44.36C42.6013 44.296 42.4573 44.224 42.3773 44.144C42.3133 44.064 42.2893 43.928 42.3053 43.736C42.3853 42.792 42.4653 41.84 42.5453 40.88C42.6253 39.92 42.7053 38.96 42.7853 38L40.6733 37.928C40.6893 37.304 40.6973 36.68 40.6973 36.056C40.6973 35.416 40.6973 34.776 40.6973 34.136C40.7133 34.072 40.7293 34.016 40.7453 33.968C40.7613 33.904 40.7693 33.84 40.7693 33.776C40.7693 33.696 40.7613 33.608 40.7453 33.512C40.7453 33.4 40.7373 33.264 40.7213 33.104C40.7373 33.104 40.7693 33.08 40.8173 33.032C40.8653 32.984 40.9213 32.96 40.9853 32.96C41.1613 32.96 41.3213 32.968 41.4653 32.984C41.6253 33 41.7853 33.024 41.9453 33.056C42.0893 33.072 42.2333 33.104 42.3773 33.152C42.5213 33.184 42.6653 33.216 42.8093 33.248C42.8733 33.264 42.9533 33.304 43.0493 33.368C43.1933 33.432 43.3293 33.52 43.4573 33.632C44.1933 34.048 44.7293 34.584 45.0653 35.24C45.4013 35.896 45.6173 36.616 45.7133 37.4ZM54.6302 31.664C54.5182 31.6 54.4062 31.584 54.2942 31.616C54.1822 31.648 54.0702 31.656 53.9582 31.64C53.7342 31.608 53.5022 31.6 53.2622 31.616C53.0382 31.632 52.8062 31.64 52.5662 31.64C52.1022 31.624 51.6302 31.608 51.1502 31.592C50.6862 31.576 50.2062 31.56 49.7102 31.544C49.7262 31.448 49.7342 31.36 49.7342 31.28C49.7502 31.184 49.7662 31.096 49.7822 31.016C49.7822 30.744 49.8382 30.504 49.9502 30.296C50.0622 30.088 50.1902 29.888 50.3342 29.696C50.5902 29.36 50.9502 29.144 51.4142 29.048C51.6862 28.968 51.9502 28.936 52.2062 28.952C52.4622 28.952 52.7262 28.984 52.9982 29.048C53.1742 29.064 53.3422 29.12 53.5022 29.216C53.6622 29.296 53.7982 29.4 53.9102 29.528C54.0382 29.64 54.1582 29.768 54.2702 29.912C54.3982 30.056 54.4862 30.224 54.5342 30.416C54.5822 30.56 54.6542 30.664 54.7502 30.728C54.8302 30.776 54.8622 30.848 54.8462 30.944C54.8302 31.04 54.8222 31.136 54.8222 31.232C54.8222 31.328 54.8142 31.424 54.7982 31.52C54.7982 31.568 54.7822 31.616 54.7502 31.664C54.7182 31.696 54.6782 31.696 54.6302 31.664ZM54.4382 33.68L54.3662 37.568V41.624C54.3982 42.312 54.3982 43 54.3662 43.688C54.3342 44.376 54.3582 45.056 54.4382 45.728H50.4062L50.2142 33.728C50.3102 33.712 50.5262 33.704 50.8622 33.704C51.2142 33.688 51.6142 33.688 52.0622 33.704C52.5262 33.704 52.9742 33.704 53.4062 33.704C53.8382 33.704 54.1822 33.696 54.4382 33.68ZM64.968 34.904C65.32 34.92 65.664 34.936 66 34.952C66.352 34.968 66.704 34.992 67.056 35.024C67.12 35.184 67.16 35.464 67.176 35.864C67.208 36.264 67.216 36.688 67.2 37.136C67.2 37.584 67.168 37.96 67.104 38.264C66.752 38.248 66.392 38.24 66.024 38.24C65.672 38.224 65.312 38.208 64.944 38.192V40.496C64.976 41.456 64.976 42.416 64.944 43.376C64.928 44.32 64.96 45.264 65.04 46.208H60.912L60.816 38.12C60.464 38.088 60.104 38.056 59.736 38.024C59.368 37.992 58.992 37.96 58.608 37.928V36.224C58.624 35.952 58.632 35.672 58.632 35.384C58.648 35.096 58.68 34.856 58.728 34.664C58.776 34.472 58.848 34.4 58.944 34.448C59.248 34.464 59.552 34.488 59.856 34.52C60.176 34.552 60.488 34.584 60.792 34.616L60.744 29.528C60.84 29.496 61.064 29.48 61.416 29.48C61.768 29.48 62.176 29.48 62.64 29.48C63.104 29.48 63.552 29.48 63.984 29.48C64.432 29.464 64.784 29.448 65.04 29.432L64.968 34.832V34.904ZM77.28 28.73V20.06H80.19C80.25 21.46 80.35 22.87 80.49 24.29C80.65 25.69 80.69 27.11 80.61 28.55C80.05 28.57 79.49 28.6 78.93 28.64C78.39 28.66 77.84 28.69 77.28 28.73ZM77.46 34.49C78.04 34.51 78.57 34.63 79.05 34.85C79.53 35.07 79.99 35.35 80.43 35.69C80.95 36.07 81.4 36.5 81.78 36.98C82.18 37.46 82.48 38 82.68 38.6C82.74 38.74 82.78 38.9 82.8 39.08C82.84 39.26 82.87 39.43 82.89 39.59C82.93 39.75 82.94 39.93 82.92 40.13C82.9 40.31 82.9 40.48 82.92 40.64C82.96 41.38 82.86 42.07 82.62 42.71C82.4 43.35 82.06 43.93 81.6 44.45C81 45.21 80.29 45.77 79.47 46.13C78.65 46.49 77.74 46.69 76.74 46.73C76.64 46.21 76.61 45.69 76.65 45.17C76.71 44.67 76.72 44.18 76.68 43.7C76.64 43.18 76.62 42.67 76.62 42.17C76.64 41.65 76.64 41.14 76.62 40.64C76.62 40.14 76.62 39.65 76.62 39.17C76.62 38.67 76.61 38.17 76.59 37.67C76.57 37.15 76.55 36.64 76.53 36.14C76.51 35.62 76.48 35.11 76.44 34.61C75.84 34.55 75.23 34.52 74.61 34.52C74.29 34.5 73.98 34.52 73.68 34.58C73.38 34.64 73.07 34.62 72.75 34.52V20.39C72.87 20.37 72.98 20.35 73.08 20.33C73.2 20.31 73.31 20.3 73.41 20.3C73.93 20.28 74.43 20.28 74.91 20.3C75.41 20.3 75.92 20.3 76.44 20.3C76.5 20.68 76.55 21.07 76.59 21.47C76.63 21.87 76.61 22.28 76.53 22.7C76.51 22.82 76.51 22.95 76.53 23.09C76.55 23.21 76.56 23.34 76.56 23.48V24.41C76.56 24.67 76.56 24.93 76.56 25.19C76.58 25.45 76.59 25.7 76.59 25.94V27.47C76.57 28.13 76.55 28.8 76.53 29.48C76.53 30.14 76.52 30.81 76.5 31.49V34.34C76.66 34.36 76.82 34.39 76.98 34.43C77.14 34.47 77.3 34.49 77.46 34.49ZM72.9 39.8C73 39.76 73.08 39.72 73.14 39.68C73.22 39.64 73.3 39.61 73.38 39.59L73.35 39.62H76.05C76.07 39.94 76.09 40.26 76.11 40.58C76.13 40.88 76.14 41.18 76.14 41.48V45.74C76.14 45.96 76.12 46.17 76.08 46.37C76.06 46.59 75.97 46.76 75.81 46.88C75.51 46.9 75.23 46.93 74.97 46.97C74.75 46.99 74.53 47 74.31 47C74.11 47.02 73.9 47.02 73.68 47C73.28 46.96 73.08 46.72 73.08 46.28C73.02 44.14 72.96 41.98 72.9 39.8Z" fill="#CC0100"/>
</svg>
